<?xml version="1.0" encoding="utf-8"?>
<!-- Generator: Adobe Illustrator 19.2.1, SVG Export Plug-In . SVG Version: 6.00 Build 0)  -->
<svg version="1.1" id="Layer_1" xmlns="http://www.w3.org/2000/svg" xmlns:xlink="http://www.w3.org/1999/xlink" x="0px" y="0px"
	 viewBox="0 0 300 99.6" style="enable-background:new 0 0 300 99.6;" xml:space="preserve">
<style type="text/css">
	.st0{fill:#EC2024;}
	.st1{fill:#FFFFFF;}
	.st2{font-family:'Verdana-BoldItalic';}
	.st3{font-size:18.904px;}
</style>
<g>
	<path class="st0" d="M46.1,12.1c0.3-0.3,0.5-0.7,0.7-0.9c0.2-0.3,0.3-0.5,0.4-0.7c0.1-0.2,0.1-0.4,0.2-0.5V9.7
		c0-0.1-0.1-0.2-0.1-0.2l-0.2-0.2c-0.1-0.1-0.2-0.1-0.4-0.1h-0.6c-0.2,0-0.5,0-0.8,0.1l-0.8,0.2c-0.3,0.1-0.5,0.2-0.8,0.4
		c-0.2,0.2-0.5,0.3-0.8,0.6l-1,1c-0.3,0.4-0.7,0.8-0.9,1.1s-0.4,0.5-0.5,0.6l-11.1,14l-0.7,0.9L28,29c-0.2,0.3-0.3,0.5-0.4,0.7
		s-0.1,0.4-0.2,0.5v0.4c0,0.1,0,0.2,0.1,0.2l0.2,0.2c0.1,0.1,0.2,0.1,0.4,0.1s0.4,0.1,0.6,0c0.2,0,0.5,0,0.8-0.1
		c0.3,0,0.5-0.1,0.8-0.2s0.5-0.2,0.8-0.4c0.3-0.2,0.5-0.3,0.8-0.6l1-1c0.3-0.4,0.7-0.8,0.9-1.1c0.2-0.3,0.4-0.5,0.5-0.7l3.2-4.2
		h12.7L40.6,35c-1.2,0.6-2.4,1.1-4.1,1.6c-1.6,0.5-3.6,1-5.6,1.4s-4,0.7-5.8,0.8c-1.8,0.1-3.4,0.1-4.8,0s-2.6-0.3-3.6-0.5
		s-1.7-0.5-2.2-0.8s-0.9-0.6-1.3-0.9c-0.3-0.3-0.5-0.7-0.7-1.1c-0.1-0.4-0.2-0.8-0.2-1.4c0-0.5,0.1-1.1,0.4-1.8
		c0.2-0.7,0.6-1.5,1.3-2.6s1.8-2.5,2.5-3.4c0.7-0.8,0.9-1.1,1.1-1.4l10-12.8c1.9-2.4,4-4.7,6.3-6.4s4.8-2.9,7.6-3.7s6.1-1.4,9-1.5
		s5.5,0.2,7.7,0.9c2.3,0.7,4.3,1.8,6,3.2l-8,10.2H43.6l1.7-2.2C45.6,12.7,45.8,12.4,46.1,12.1 M58.7,17.6c1-1.1,2-1.8,2.9-2.5
		s1.9-1.2,2.9-1.7c1-0.5,2.1-0.9,3.3-1.2c1.2-0.3,2.5-0.6,4.1-0.8s3.3-0.3,5-0.3s3.3,0.1,4.5,0.2c1.2,0.1,2.1,0.3,2.8,0.5
		c0.7,0.2,1.2,0.5,1.5,0.7c0.4,0.3,0.6,0.5,0.8,0.8c0.2,0.3,0.3,0.6,0.3,1s0,0.8-0.2,1.3c-0.1,0.5-0.4,1.2-1,2.1
		c-0.5,0.9-1.4,2.1-2.3,3.2l-5,6.4h-16l-1.9,2.5l-0.5,0.6c-0.2,0.2-0.3,0.4-0.4,0.6l-0.3,0.6c-0.1,0.2-0.1,0.3-0.1,0.5v0.3
		c0,0.1,0,0.1,0.1,0.2c0,0.1,0.1,0.1,0.2,0.2l0.3,0.1h0.5c0.2,0,0.4,0,0.6-0.1c0.2,0,0.5-0.1,0.7-0.2c0.2-0.1,0.4-0.2,0.7-0.3
		c0.2-0.1,0.5-0.3,0.7-0.5s0.5-0.4,0.8-0.8c0.3-0.3,0.6-0.7,0.9-1.1l0.8-1h11.7L72,35.7c-1.3,0.6-2.7,1.1-4.2,1.6s-3.2,0.9-5,1.2
		c-1.8,0.3-3.6,0.6-5.3,0.7c-1.7,0.1-3.2,0.1-4.4,0c-1.3-0.1-2.3-0.2-3.1-0.4s-1.5-0.4-2-0.7s-0.9-0.5-1.2-0.8s-0.5-0.6-0.6-0.9
		c-0.1-0.3-0.2-0.6-0.2-1.1c0-0.4,0.1-0.9,0.3-1.5s0.5-1.3,1-2s1.1-1.5,1.5-2s0.6-0.7,0.8-1l5.7-7.3C56.5,20,57.7,18.7,58.7,17.6
		 M72.8,19.9c0.1-0.1,0.2-0.3,0.4-0.5l0.4-0.6c0.1-0.2,0.1-0.3,0.1-0.5V18c0-0.1,0-0.2-0.1-0.2c0-0.1-0.1-0.1-0.2-0.2
		s-0.2-0.1-0.3-0.1c-0.1,0-0.3-0.1-0.5-0.1s-0.4,0-0.7,0.1c-0.2,0-0.5,0.1-0.7,0.2L70.5,18c-0.2,0.1-0.5,0.3-0.7,0.5
		c-0.3,0.2-0.5,0.4-0.8,0.7c-0.3,0.3-0.6,0.6-0.8,1l-0.8,1h4.5l0.8-1C72.7,20.1,72.7,20.1,72.8,19.9 M110.1,11.7
		c1.3-0.3,2.5-0.6,3.5-0.7c1-0.1,1.8-0.1,2.5-0.1s1.3,0.1,1.8,0.3c0.5,0.1,0.9,0.3,1.2,0.6c0.3,0.2,0.6,0.5,0.8,0.8
		c0.2,0.3,0.4,0.6,0.5,0.9c1.4-0.6,2.8-1.1,4-1.4c1.3-0.4,2.5-0.7,3.5-0.9c1-0.2,1.9-0.3,2.7-0.3s1.5,0,2,0.1
		c0.6,0.1,1.1,0.2,1.5,0.4s0.8,0.4,1,0.6c0.3,0.2,0.5,0.4,0.6,0.7c0.2,0.2,0.2,0.5,0.3,0.7c0.1,0.3,0.1,0.6,0,0.9
		c0,0.3-0.1,0.7-0.4,1.2c-0.2,0.5-0.6,1.3-1.1,2c-0.5,0.8-1.1,1.6-1.5,2c-0.4,0.5-0.5,0.6-0.6,0.8l-6.7,8.6l-0.6,0.8
		c-0.2,0.2-0.4,0.5-0.5,0.7s-0.3,0.4-0.3,0.6c-0.1,0.2-0.1,0.3-0.2,0.4v0.4c0,0.1,0,0.3,0.1,0.4c0,0.1,0.1,0.2,0.2,0.3l-4.7,6h-12.4
		c0.5-0.9,1-1.8,1.9-3.1s2.1-2.9,2.8-3.8c0.7-0.9,0.9-1.2,1.2-1.5l5.1-6.6c0.5-0.6,1-1.2,1.4-1.7s0.7-1,0.9-1.3
		c0.2-0.3,0.3-0.5,0.4-0.7s0.1-0.3,0.1-0.4v-0.3c0-0.1-0.1-0.2-0.1-0.2l-0.2-0.2c-0.1-0.1-0.2-0.1-0.3-0.1c-0.1,0-0.3-0.1-0.5-0.1
		s-0.5,0-0.9,0.1c-0.4,0-0.9,0.1-1.4,0.2l-7.7,10c-0.4,0.5-0.7,1-1,1.3c-0.2,0.4-0.4,0.6-0.5,0.8l-0.2,0.5v0.4c0,0.1,0,0.2,0.1,0.3
		c0,0.1,0.1,0.2,0.2,0.3l-4.7,6H91.5c0.5-0.9,1.1-1.8,1.9-3.1c0.9-1.3,2.1-2.9,2.8-3.8c0.7-0.9,0.9-1.2,1.2-1.5l5.1-6.6l1.2-1.4
		c0.3-0.4,0.6-0.9,0.9-1.2c0.2-0.4,0.4-0.6,0.5-0.9c0.1-0.2,0.2-0.4,0.2-0.5V19c0-0.1,0-0.2-0.1-0.3c0-0.1-0.1-0.1-0.2-0.2l-0.3-0.1
		c-0.1,0-0.3-0.1-0.5-0.1h-0.9c-0.4,0-0.9,0.1-1.4,0.2L94,28.8l-0.6,0.8l-0.5,0.6c-0.1,0.2-0.3,0.4-0.3,0.6
		c-0.1,0.2-0.1,0.3-0.2,0.4c0,0.1-0.1,0.2-0.1,0.4v0.3l0.1,0.3c0,0.1,0.1,0.2,0.2,0.2l-4.7,6H73.5l4.7-6c0.7-0.2,1.4-0.6,2-1.1
		s1.2-1.2,1.6-1.6c0.3-0.4,0.4-0.5,0.5-0.6l6.2-8c0.2-0.2,0.4-0.5,0.5-0.7c0.2-0.2,0.3-0.4,0.4-0.6s0.2-0.4,0.3-0.5
		c0.1-0.2,0.2-0.3,0.2-0.5c0.1-0.2,0.1-0.3,0.1-0.4v-0.3c0-0.1,0-0.2-0.1-0.2l-0.1-0.2c0-0.1-0.1-0.1-0.1-0.1l4.7-6H107l-1.3,1.6
		C107.3,12.5,108.8,12,110.1,11.7 M139.9,17.6c1-1.1,2-1.8,2.9-2.5s1.9-1.2,2.9-1.7s2.1-0.9,3.3-1.2s2.5-0.6,4.1-0.8s3.3-0.3,5-0.3
		s3.3,0.1,4.5,0.2c1.2,0.1,2.1,0.3,2.8,0.5s1.2,0.5,1.5,0.7c0.4,0.3,0.6,0.5,0.8,0.8s0.3,0.6,0.3,1s0,0.8-0.2,1.3
		c-0.1,0.5-0.4,1.2-0.9,2.1s-1.4,2.1-2.3,3.2l-5,6.4h-16l-1.9,2.5l-0.5,0.6c-0.2,0.2-0.3,0.4-0.4,0.6l-0.3,0.6
		c-0.1,0.2-0.1,0.3-0.1,0.5v0.3l0.1,0.2c0,0.1,0.1,0.1,0.2,0.2l0.3,0.1h0.5c0.2,0,0.4,0,0.6-0.1c0.2,0,0.5-0.1,0.7-0.2
		c0.2-0.1,0.4-0.2,0.7-0.3c0.2-0.1,0.5-0.3,0.7-0.5s0.5-0.4,0.8-0.8c0.3-0.3,0.6-0.7,0.9-1.1l0.8-1h11.7l-5.3,6.8
		c-1.3,0.6-2.7,1.1-4.2,1.6s-3.2,0.9-5,1.2s-3.6,0.6-5.3,0.7c-1.7,0.1-3.2,0.1-4.4,0c-1.3-0.1-2.3-0.2-3.1-0.4s-1.5-0.4-2-0.7
		s-0.9-0.5-1.2-0.8s-0.5-0.6-0.6-0.9c-0.1-0.3-0.2-0.6-0.2-1.1c0-0.4,0.1-0.9,0.3-1.5c0.2-0.6,0.5-1.3,1-2c0.5-0.7,1.1-1.5,1.5-2
		s0.6-0.7,0.8-1l5.7-7.3C137.7,20,138.8,18.7,139.9,17.6 M154,19.9c0.1-0.1,0.2-0.3,0.4-0.5l0.4-0.6c0.1-0.2,0.1-0.3,0.1-0.5V18
		c0-0.1,0-0.2-0.1-0.2c0-0.1-0.1-0.1-0.2-0.2s-0.2-0.1-0.3-0.1s-0.3-0.1-0.5-0.1s-0.4,0-0.7,0.1c-0.2,0-0.5,0.1-0.7,0.2l-0.7,0.3
		c-0.2,0.1-0.5,0.3-0.7,0.5c-0.3,0.2-0.5,0.4-0.8,0.7c-0.3,0.3-0.6,0.6-0.8,1l-0.8,1h4.5l0.8-1C153.9,20.1,153.9,20.1,154,19.9
		 M190,12c1-0.3,2.2-0.6,3.2-0.8s1.9-0.3,2.7-0.3s1.5,0,2.1,0.1s1.2,0.2,1.6,0.3c0.4,0.1,0.8,0.3,1,0.5c0.3,0.2,0.5,0.4,0.6,0.6
		c0.2,0.2,0.3,0.4,0.3,0.7c0.1,0.3,0.1,0.6,0.1,0.9c0,0.3-0.1,0.7-0.2,1.1c-0.2,0.4-0.4,0.9-0.7,1.5s-0.8,1.2-1.1,1.5
		c-0.3,0.4-0.4,0.5-0.5,0.7l-7.9,10.1l-0.6,0.8l-0.5,0.6c-0.1,0.2-0.2,0.4-0.3,0.5c-0.1,0.2-0.2,0.3-0.2,0.5l-0.1,0.4V32
		c0,0.1,0,0.2,0.1,0.2l0.1,0.2l0.1,0.1l-4.7,6h-12.4c0.6-1,1.2-2,2.1-3.3c0.9-1.3,2.1-2.9,2.8-3.8c0.7-0.9,0.8-1.1,1-1.3l6.2-7.9
		c0.1-0.1,0.2-0.2,0.3-0.4c0.1-0.2,0.3-0.4,0.5-0.6s0.4-0.5,0.5-0.7s0.2-0.3,0.2-0.5v-0.3c0-0.1,0-0.2-0.1-0.3l-0.1-0.3
		c-0.1-0.1-0.1-0.2-0.2-0.2l-0.3-0.2c-0.1,0-0.2-0.1-0.4-0.1h-0.5c-0.2,0-0.5,0-0.7,0.1l-0.9,0.2L175.2,29l-0.4,0.5
		c-0.3,0.3-0.5,0.7-0.7,0.9c-0.2,0.3-0.3,0.4-0.4,0.6l-0.2,0.5c0,0.1-0.1,0.2-0.1,0.4v0.3c0,0.1,0,0.1,0.1,0.2l0.1,0.2l0.1,0.1
		l-4.7,6h-14.5l4.7-6c0.5-0.2,0.9-0.4,1.3-0.6c0.4-0.2,0.8-0.5,1.2-0.9s0.9-1,1.1-1.3c0.3-0.3,0.3-0.4,0.4-0.5l6.4-8.2
		c0.3-0.4,0.7-0.9,0.9-1.2c0.2-0.3,0.3-0.5,0.4-0.7c0.1-0.2,0.1-0.3,0.1-0.4v-0.3l-0.1-0.3c0-0.1-0.1-0.2-0.2-0.3l4.7-6H188
		l-1.3,1.7C188,12.6,189,12.3,190,12 M223.9,17.6c1-1.1,2-1.8,2.9-2.5s1.9-1.2,2.9-1.7s2.1-0.9,3.3-1.2s2.5-0.6,4.1-0.8
		s3.3-0.3,5-0.3s3.3,0.1,4.5,0.2c1.2,0.1,2.1,0.3,2.8,0.5s1.2,0.5,1.5,0.7c0.4,0.3,0.6,0.5,0.8,0.8s0.3,0.6,0.3,1s0,0.8-0.2,1.3
		s-0.4,1.2-0.9,2.1s-1.4,2.1-2.3,3.2l-5,6.4h-16l-1.9,2.5l-0.5,0.6c-0.2,0.2-0.3,0.4-0.4,0.6l-0.3,0.6c-0.1,0.2-0.1,0.3-0.1,0.5v0.3
		l0.1,0.2c0,0.1,0.1,0.1,0.2,0.2l0.3,0.1h0.5c0.2,0,0.4,0,0.6-0.1c0.2,0,0.5-0.1,0.7-0.2c0.2-0.1,0.4-0.2,0.7-0.3
		c0.2-0.1,0.4-0.3,0.7-0.5c0.2-0.2,0.5-0.4,0.8-0.8c0.3-0.3,0.6-0.7,0.9-1.1l0.8-1h11.7l-5.3,6.8c-1.3,0.6-2.7,1.1-4.2,1.6
		s-3.2,0.9-5,1.2s-3.6,0.6-5.3,0.7c-1.7,0.1-3.2,0.1-4.4,0c-1.3-0.1-2.3-0.2-3.1-0.4s-1.5-0.4-2-0.7s-0.9-0.5-1.2-0.8
		s-0.5-0.6-0.6-0.9c-0.1-0.3-0.2-0.6-0.2-1.1c0-0.4,0.1-0.9,0.3-1.5s0.5-1.3,1-2s1.1-1.5,1.5-2s0.6-0.7,0.8-1l5.7-7.3
		C221.7,20,222.9,18.7,223.9,17.6 M238,19.9c0.1-0.1,0.2-0.3,0.4-0.5l0.4-0.6c0.1-0.2,0.1-0.3,0.1-0.5V18c0-0.1,0-0.2-0.1-0.2
		c0-0.1-0.1-0.1-0.2-0.2s-0.2-0.1-0.3-0.1s-0.3-0.1-0.5-0.1s-0.4,0-0.7,0.1c-0.2,0-0.5,0.1-0.7,0.2l-0.7,0.3
		c-0.2,0.1-0.5,0.3-0.7,0.5c-0.3,0.2-0.5,0.4-0.8,0.7c-0.3,0.3-0.6,0.6-0.8,1l-0.8,1h4.5l0.8-1C237.9,20.1,237.9,20.1,238,19.9
		 M256.7,20c0-0.4-0.1-0.8-0.2-1.1c-0.1-0.3-0.1-0.5-0.2-0.6c-0.1-0.2-0.2-0.3-0.3-0.4l-0.6-0.4l4.8-6.1h13.1l-0.8,1l-0.8,1
		c-0.3,0.3-0.6,0.7-0.8,1c-0.2,0.3-0.4,0.6-0.5,0.9c-0.1,0.3-0.2,0.6-0.2,1s0,0.9,0.1,1.4l0.4-0.3c1.1-0.7,2.2-1.4,3-2.1
		c0.8-0.7,1.4-1.5,1.7-1.9c0.3-0.4,0.5-0.6,0.6-0.7l1-1.3h11.3l-4.8,6.1l-2,0.9c-0.7,0.4-1.4,0.8-1.9,1.1c-0.5,0.3-0.7,0.4-0.9,0.6
		l-7.3,4.5l0.1,5.2c0,0.4,0,0.7,0.1,1c0,0.3,0.1,0.5,0.2,0.7l0.3,0.5c0.1,0.2,0.3,0.3,0.5,0.5l-4.7,6h-13.7l0.8-1
		c0.4-0.5,0.8-1,1.2-1.6c0.4-0.5,0.8-1,1.1-1.5c0.3-0.5,0.5-0.9,0.6-1.5c0.1-0.5,0.2-1.1,0.1-1.7c-1.4,0.7-2.7,1.5-3.7,2.4
		c-1.1,0.9-1.9,2-2.4,2.6l-0.8,1l-1,1.3H239l4.7-6c0.4-0.1,0.8-0.2,1.3-0.5s1.3-0.7,1.7-0.9c0.4-0.2,0.5-0.3,0.6-0.3l10-6.1
		L256.7,20 M299.6,44.3v8.4H1v-8.4h184.4l19.5-26.6h-1.4l4.8-6.2h1.4l4.1-5.2l13.9-2.9l-6.3,8.1h3.8l-4.8,6.2h-3.8l-19.4,26.6
		L299.6,44.3"/>
</g>
<text transform="matrix(1 0 0 1 6.215 75.6334)" class="st1 st2 st3">The Safety Tool Specialists</text>
</svg>
