<svg xmlns="http://www.w3.org/2000/svg" viewBox="0 0 300 99.6" enable-background="new 0 0 300 99.6"><g fill="#EC2024"><path d="M46.1 12.1c.3-.3.5-.7.7-.9.2-.3.3-.5.4-.7.1-.2.1-.4.2-.5v-.3c0-.1-.1-.2-.1-.2l-.2-.2c-.1-.1-.2-.1-.4-.1h-.6c-.2 0-.5 0-.8.1l-.8.2c-.3.1-.5.2-.8.4-.2.2-.5.3-.8.6l-1 1c-.3.4-.7.8-.9 1.1-.2.3-.4.5-.5.6l-11.1 14-.7.9-.7.9c-.2.3-.3.5-.4.7-.1.2-.1.4-.2.5v.4c0 .1 0 .2.1.2l.2.2c.1.1.2.1.4.1s.4.1.6 0c.2 0 .5 0 .8-.1.3 0 .5-.1.8-.2.3-.1.5-.2.8-.4.3-.2.5-.3.8-.6l1-1c.3-.4.7-.8.9-1.1.2-.3.4-.5.5-.7l3.2-4.2h12.7l-9.6 12.2c-1.2.6-2.4 1.1-4.1 1.6-1.6.5-3.6 1-5.6 1.4-2 .4-4 .7-5.8.8-1.8.1-3.4.1-4.8 0s-2.6-.3-3.6-.5-1.7-.5-2.2-.8c-.5-.3-.9-.6-1.3-.9-.3-.3-.5-.7-.7-1.1-.1-.4-.2-.8-.2-1.4 0-.5.1-1.1.4-1.8.2-.7.6-1.5 1.3-2.6.7-1.1 1.8-2.5 2.5-3.4.7-.8.9-1.1 1.1-1.4l10-12.8c1.9-2.4 4-4.7 6.3-6.4 2.3-1.7 4.8-2.9 7.6-3.7 2.8-.8 6.1-1.4 9-1.5 2.9-.1 5.5.2 7.7.9 2.3.7 4.3 1.8 6 3.2l-8 10.2h-12.6l1.7-2.2c.3.1.5-.2.8-.5M58.7 17.6c1-1.1 2-1.8 2.9-2.5.9-.7 1.9-1.2 2.9-1.7s2.1-.9 3.3-1.2c1.2-.3 2.5-.6 4.1-.8 1.6-.2 3.3-.3 5-.3 1.7 0 3.3.1 4.5.2 1.2.1 2.1.3 2.8.5.7.2 1.2.5 1.5.7.4.3.6.5.8.8.2.3.3.6.3 1s0 .8-.2 1.3c-.1.5-.4 1.2-1 2.1-.5.9-1.4 2.1-2.3 3.2l-5 6.4h-16l-1.9 2.5-.5.6c-.2.2-.3.4-.4.6l-.3.6c-.1.2-.1.3-.1.5v.3c0 .1 0 .1.1.2 0 .1.1.1.2.2l.3.1h.5c.2 0 .4 0 .6-.1.2 0 .5-.1.7-.2.2-.1.4-.2.7-.3.2-.1.5-.3.7-.5.2-.2.5-.4.8-.8.3-.3.6-.7.9-1.1l.8-1h11.7l-5.1 6.8c-1.3.6-2.7 1.1-4.2 1.6s-3.2.9-5 1.2c-1.8.3-3.6.6-5.3.7-1.7.1-3.2.1-4.4 0-1.3-.1-2.3-.2-3.1-.4-.8-.2-1.5-.4-2-.7-.5-.3-.9-.5-1.2-.8-.3-.3-.5-.6-.6-.9-.1-.3-.2-.6-.2-1.1 0-.4.1-.9.3-1.5.2-.6.5-1.3 1-2s1.1-1.5 1.5-2c.4-.5.6-.7.8-1l5.7-7.3c1.2-1.5 2.4-2.8 3.4-3.9m14.1 2.3c.1-.1.2-.3.4-.5l.4-.6c.1-.2.1-.3.1-.5v-.3c0-.1 0-.2-.1-.2 0-.1-.1-.1-.2-.2s-.2-.1-.3-.1c-.1 0-.3-.1-.5-.1s-.4 0-.7.1c-.2 0-.5.1-.7.2l-.7.3c-.2.1-.5.3-.7.5-.3.2-.5.4-.8.7-.3.3-.6.6-.8 1l-.8 1h4.5l.8-1c0-.1 0-.1.1-.3M110.1 11.7c1.3-.3 2.5-.6 3.5-.7 1-.1 1.8-.1 2.5-.1s1.3.1 1.8.3c.5.1.9.3 1.2.6.3.2.6.5.8.8.2.3.4.6.5.9 1.4-.6 2.8-1.1 4-1.4 1.3-.4 2.5-.7 3.5-.9 1-.2 1.9-.3 2.7-.3.8 0 1.5 0 2 .1.6.1 1.1.2 1.5.4.4.2.8.4 1 .6.3.2.5.4.6.7.2.2.2.5.3.7.1.3.1.6 0 .9 0 .3-.1.7-.4 1.2-.2.5-.6 1.3-1.1 2-.5.8-1.1 1.6-1.5 2-.4.5-.5.6-.6.8l-6.7 8.6-.6.8c-.2.2-.4.5-.5.7-.1.2-.3.4-.3.6-.1.2-.1.3-.2.4v.4c0 .1 0 .3.1.4 0 .1.1.2.2.3l-4.7 6h-12.4c.5-.9 1-1.8 1.9-3.1.9-1.3 2.1-2.9 2.8-3.8.7-.9.9-1.2 1.2-1.5l5.1-6.6c.5-.6 1-1.2 1.4-1.7.4-.5.7-1 .9-1.3.2-.3.3-.5.4-.7.1-.2.1-.3.1-.4v-.3c0-.1-.1-.2-.1-.2l-.2-.2c-.1-.1-.2-.1-.3-.1-.1 0-.3-.1-.5-.1s-.5 0-.9.1c-.4 0-.9.1-1.4.2l-7.7 10c-.4.5-.7 1-1 1.3-.2.4-.4.6-.5.8l-.2.5v.4c0 .1 0 .2.1.3 0 .1.1.2.2.3l-4.7 6h-12.4c.5-.9 1.1-1.8 1.9-3.1.9-1.3 2.1-2.9 2.8-3.8.7-.9.9-1.2 1.2-1.5l5.1-6.6 1.2-1.4c.3-.4.6-.9.9-1.2.2-.4.4-.6.5-.9.1-.2.2-.4.2-.5v-.4c0-.1 0-.2-.1-.3 0-.1-.1-.1-.2-.2l-.3-.1c-.1 0-.3-.1-.5-.1h-.9c-.4 0-.9.1-1.4.2l-7.9 10.3-.6.8-.5.6c-.1.2-.3.4-.3.6-.1.2-.1.3-.2.4 0 .1-.1.2-.1.4v.3l.1.3c0 .1.1.2.2.2l-4.7 6h-14.4l4.7-6c.7-.2 1.4-.6 2-1.1.6-.5 1.2-1.2 1.6-1.6.3-.4.4-.5.5-.6l6.2-8c.2-.2.4-.5.5-.7.2-.2.3-.4.4-.6.1-.2.2-.4.3-.5.1-.2.2-.3.2-.5.1-.2.1-.3.1-.4v-.3c0-.1 0-.2-.1-.2l-.1-.2c0-.1-.1-.1-.1-.1l4.7-6h12.6l-1.3 1.6c1.6-.7 3.1-1.2 4.4-1.5M139.9 17.6c1-1.1 2-1.8 2.9-2.5.9-.7 1.9-1.2 2.9-1.7s2.1-.9 3.3-1.2c1.2-.3 2.5-.6 4.1-.8 1.6-.2 3.3-.3 5-.3 1.7 0 3.3.1 4.5.2 1.2.1 2.1.3 2.8.5.7.2 1.2.5 1.5.7.4.3.6.5.8.8.2.3.3.6.3 1s0 .8-.2 1.3c-.1.5-.4 1.2-.9 2.1-.5.9-1.4 2.1-2.3 3.2l-5 6.4h-16l-1.9 2.5-.5.6c-.2.2-.3.4-.4.6l-.3.6c-.1.2-.1.3-.1.5v.3l.1.2c0 .1.1.1.2.2l.3.1h.5c.2 0 .4 0 .6-.1.2 0 .5-.1.7-.2.2-.1.4-.2.7-.3.2-.1.5-.3.7-.5.2-.2.5-.4.8-.8.3-.3.6-.7.9-1.1l.8-1h11.7l-5.3 6.8c-1.3.6-2.7 1.1-4.2 1.6s-3.2.9-5 1.2c-1.8.3-3.6.6-5.3.7-1.7.1-3.2.1-4.4 0-1.3-.1-2.3-.2-3.1-.4-.8-.2-1.5-.4-2-.7-.5-.3-.9-.5-1.2-.8-.3-.3-.5-.6-.6-.9-.1-.3-.2-.6-.2-1.1 0-.4.1-.9.3-1.5.2-.6.5-1.3 1-2s1.1-1.5 1.5-2c.4-.5.6-.7.8-1l5.7-7.3c1.3-1.5 2.4-2.8 3.5-3.9m14.1 2.3c.1-.1.2-.3.4-.5l.4-.6c.1-.2.1-.3.1-.5v-.3c0-.1 0-.2-.1-.2 0-.1-.1-.1-.2-.2s-.2-.1-.3-.1c-.1 0-.3-.1-.5-.1s-.4 0-.7.1c-.2 0-.5.1-.7.2l-.7.3c-.2.1-.5.3-.7.5-.3.2-.5.4-.8.7-.3.3-.6.6-.8 1l-.8 1h4.5l.8-1c0-.1 0-.1.1-.3M190 12c1-.3 2.2-.6 3.2-.8 1-.2 1.9-.3 2.7-.3.8 0 1.5 0 2.1.1.6.1 1.2.2 1.6.3.4.1.8.3 1 .5.3.2.5.4.6.6.2.2.3.4.3.7.1.3.1.6.1.9 0 .3-.1.7-.2 1.1-.2.4-.4.9-.7 1.5-.3.6-.8 1.2-1.1 1.5-.3.4-.4.5-.5.7l-7.9 10.1-.6.8-.5.6c-.1.2-.2.4-.3.5-.1.2-.2.3-.2.5l-.1.4v.3c0 .1 0 .2.1.2l.1.2.1.1-4.7 6h-12.4c.6-1 1.2-2 2.1-3.3.9-1.3 2.1-2.9 2.8-3.8.7-.9.8-1.1 1-1.3l6.2-7.9c.1-.1.2-.2.3-.4.1-.2.3-.4.5-.6.2-.2.4-.5.5-.7.1-.2.2-.3.2-.5v-.3c0-.1 0-.2-.1-.3l-.1-.3c-.1-.1-.1-.2-.2-.2l-.3-.2c-.1 0-.2-.1-.4-.1h-.5c-.2 0-.5 0-.7.1l-.9.2-7.9 10.1-.4.5c-.3.3-.5.7-.7.9-.2.3-.3.4-.4.6l-.2.5c0 .1-.1.2-.1.4v.3c0 .1 0 .1.1.2l.1.2.1.1-4.7 6h-14.5l4.7-6c.5-.2.9-.4 1.3-.6.4-.2.8-.5 1.2-.9.4-.4.9-1 1.1-1.3.3-.3.3-.4.4-.5l6.4-8.2c.3-.4.7-.9.9-1.2.2-.3.3-.5.4-.7.1-.2.1-.3.1-.4v-.3l-.1-.3c0-.1-.1-.2-.2-.3l4.7-6h12.6l-1.3 1.7c1.3-1.1 2.3-1.4 3.3-1.7M223.9 17.6c1-1.1 2-1.8 2.9-2.5.9-.7 1.9-1.2 2.9-1.7s2.1-.9 3.3-1.2c1.2-.3 2.5-.6 4.1-.8 1.6-.2 3.3-.3 5-.3 1.7 0 3.3.1 4.5.2 1.2.1 2.1.3 2.8.5.7.2 1.2.5 1.5.7.4.3.6.5.8.8.2.3.3.6.3 1s0 .8-.2 1.3-.4 1.2-.9 2.1c-.5.9-1.4 2.1-2.3 3.2l-5 6.4h-16l-1.9 2.5-.5.6c-.2.2-.3.4-.4.6l-.3.6c-.1.2-.1.3-.1.5v.3l.1.2c0 .1.1.1.2.2l.3.1h.5c.2 0 .4 0 .6-.1.2 0 .5-.1.7-.2.2-.1.4-.2.7-.3.2-.1.4-.3.7-.5.2-.2.5-.4.8-.8.3-.3.6-.7.9-1.1l.8-1h11.7l-5.3 6.8c-1.3.6-2.7 1.1-4.2 1.6s-3.2.9-5 1.2c-1.8.3-3.6.6-5.3.7-1.7.1-3.2.1-4.4 0-1.3-.1-2.3-.2-3.1-.4-.8-.2-1.5-.4-2-.7-.5-.3-.9-.5-1.2-.8-.3-.3-.5-.6-.6-.9-.1-.3-.2-.6-.2-1.1 0-.4.1-.9.3-1.5.2-.6.5-1.3 1-2s1.1-1.5 1.5-2c.4-.5.6-.7.8-1l5.7-7.3c1.3-1.5 2.5-2.8 3.5-3.9m14.1 2.3c.1-.1.2-.3.4-.5l.4-.6c.1-.2.1-.3.1-.5v-.3c0-.1 0-.2-.1-.2 0-.1-.1-.1-.2-.2s-.2-.1-.3-.1c-.1 0-.3-.1-.5-.1s-.4 0-.7.1c-.2 0-.5.1-.7.2l-.7.3c-.2.1-.5.3-.7.5-.3.2-.5.4-.8.7-.3.3-.6.6-.8 1l-.8 1h4.5l.8-1c0-.1 0-.1.1-.3M256.7 20c0-.4-.1-.8-.2-1.1-.1-.3-.1-.5-.2-.6-.1-.2-.2-.3-.3-.4l-.6-.4 4.8-6.1h13.1l-.8 1-.8 1c-.3.3-.6.7-.8 1-.2.3-.4.6-.5.9-.1.3-.2.6-.2 1s0 .9.1 1.4l.4-.3c1.1-.7 2.2-1.4 3-2.1.8-.7 1.4-1.5 1.7-1.9.3-.4.5-.6.6-.7l1-1.3h11.3l-4.8 6.1-2 .9c-.7.4-1.4.8-1.9 1.1-.5.3-.7.4-.9.6l-7.3 4.5.1 5.2c0 .4 0 .7.1 1 0 .3.1.5.2.7l.3.5c.1.2.3.3.5.5l-4.7 6h-13.7l.8-1c.4-.5.8-1 1.2-1.6.4-.5.8-1 1.1-1.5.3-.5.5-.9.6-1.5.1-.5.2-1.1.1-1.7-1.4.7-2.7 1.5-3.7 2.4-1.1.9-1.9 2-2.4 2.6l-.8 1-1 1.3h-11.1l4.7-6c.4-.1.8-.2 1.3-.5s1.3-.7 1.7-.9c.4-.2.5-.3.6-.3l10-6.1-.6-4.7M299.6 44.3v8.4h-298.6v-8.4h184.4l19.5-26.6h-1.4l4.8-6.2h1.4l4.1-5.2 13.9-2.9-6.3 8.1h3.8l-4.8 6.2h-3.8l-19.4 26.6h102.4"/></g><path d="M1 51.4h298.6v48.2h-298.6z"/><text transform="translate(6.215 84.631)" fill="#fff" font-family="'Verdana-BoldItalic'" font-size="18.904">The Safety Tool Specialists</text><path stroke="#fff" stroke-width="5" fill="none" d="M1 58.6h299.2"/><path stroke="#fff" stroke-width="4" fill="none" d="M1 93.8h298.6"/></svg>