<?xml version="1.0" encoding="utf-8"?>
<!-- Generator: Adobe Illustrator 19.2.1, SVG Export Plug-In . SVG Version: 6.00 Build 0)  -->
<svg version="1.1" id="Layer_1" xmlns="http://www.w3.org/2000/svg" xmlns:xlink="http://www.w3.org/1999/xlink" x="0px" y="0px"
	 viewBox="0 0 50 50" style="enable-background:new 0 0 50 50;" xml:space="preserve">
<style type="text/css">
	.st0{fill:#F2D047;}
	.st1{fill:#FFFFFF;}
</style>
<circle class="st0" cx="25" cy="25" r="25"/>
<g>
	<path class="st1" d="M45.9,20.2c0-0.7,0-0.8-0.1-0.9c0-0.1-0.1-0.2-0.1-0.2c-0.1-0.1-0.1-0.1-0.2-0.2L44.8,18H5.2l-0.6,0.7
		l-0.1,0.1l0,0C4.4,18.9,4.3,19,4.3,19c-0.1,0.1-0.1,0.2-0.2,0.3c-0.1,0.4,0,8.3,0.9,9.6c0.6,0.8,1.3,1.2,1.8,1.5
		C6.9,30.4,7,30.5,7,30.5c2.1,2.1,4.9,3.2,8.6,3.4c0.2,0,0.4,0,0.6,0c1.8,0,3.5-0.4,4.8-1.2c0.3-0.2,0.7-0.5,1-0.7
		c0.3-0.1,0.5-0.3,0.6-0.6l0,0c0.5-0.5,0.8-1.2,1.1-1.8c0.1-0.2,0.2-0.5,0.2-0.8l0.1-0.3l0.1-0.2c0.1-0.1,0.1-0.3,0.1-0.4
		c0.2-0.5,0.5-0.6,0.8-0.6c0.3,0,0.6,0.1,0.8,0.6c0,0.1,0.1,0.3,0.1,0.4l0.1,0.2l0.1,0.4c0.1,0.3,0.2,0.5,0.2,0.8
		c0.2,0.6,0.6,1.2,1.1,1.8l0,0c0.1,0.3,0.3,0.5,0.6,0.6c0.3,0.3,0.6,0.5,1,0.7c1.3,0.8,2.9,1.2,4.8,1.2c0.2,0,0.4,0,0.6,0
		c3.7-0.2,6.5-1.3,8.6-3.4c0.1,0,0.2-0.1,0.3-0.2c0.4-0.3,1.2-0.7,1.7-1.5c0.9-1.2,0.9-7.7,0.9-8.4c0,0,0-0.1,0-0.1L45.9,20.2z
		 M43.8,28c-0.4,0.6-0.9,0.8-1.3,1.1c-0.2,0.1-0.4,0.2-0.5,0.4c-1.9,1.9-4.3,2.8-7.7,3c-0.2,0-0.4,0-0.5,0c-1.4,0-2.8-0.3-3.8-0.9
		c0.2-0.2,0.4-0.4,0.5-0.6c0.1-0.3,0.1-0.7-0.1-1l-1.5-3.1c-0.2-0.4-0.7-0.7-1.2-0.7c-0.2,0-0.4,0-0.6,0.1l-0.5,0.2
		c-0.4-0.5-1-0.7-1.6-0.7s-1.2,0.2-1.6,0.7l-0.5-0.2c-0.2-0.1-0.4-0.1-0.6-0.1c-0.5,0-0.9,0.3-1.2,0.7L19.6,30
		c-0.1,0.3-0.2,0.7-0.1,1c0.1,0.2,0.2,0.5,0.5,0.6c-1,0.6-2.3,0.9-3.8,0.9c-0.2,0-0.4,0-0.5,0c-3.4-0.2-5.8-1.1-7.7-3
		c-0.1-0.1-0.3-0.3-0.6-0.4c-0.4-0.2-0.9-0.5-1.3-1.1c-0.3-0.5-0.6-4.1-0.7-7h38.9C44.4,23.9,44.1,27.5,43.8,28z"/>
	<path class="st1" d="M33.3,28.5c0.1,0,0.2,0,0.2-0.1l3.8-3.1c0.2-0.1,0.2-0.4,0.1-0.5c-0.1-0.2-0.4-0.2-0.5-0.1l-3.8,3.1
		c-0.2,0.1-0.2,0.4-0.1,0.5C33.1,28.5,33.2,28.5,33.3,28.5z"/>
	<path class="st1" d="M35.4,29.4c0.1,0.1,0.2,0.1,0.3,0.1c0.1,0,0.2,0,0.2-0.1l5.6-4.6c0.2-0.1,0.2-0.4,0-0.5
		c-0.1-0.2-0.4-0.2-0.5-0.1l-5.6,4.6C35.3,29.1,35.2,29.3,35.4,29.4z"/>
</g>
</svg>
