<?xml version="1.0" encoding="utf-8"?>
<!-- Generator: Adobe Illustrator 19.2.1, SVG Export Plug-In . SVG Version: 6.00 Build 0)  -->
<svg version="1.1" id="Layer_1" xmlns="http://www.w3.org/2000/svg" xmlns:xlink="http://www.w3.org/1999/xlink" x="0px" y="0px"
	 viewBox="0 0 50 50" style="enable-background:new 0 0 50 50;" xml:space="preserve">
<style type="text/css">
	.st0{display:none;}
	.st1{display:inline;fill:#F2D047;}
	.st2{display:inline;}
	.st3{fill:#FFFFFF;}
	.st4{fill:#F2D047;}
</style>
<g id="INTERCHANGEABLE_TOOLS" class="st0">
	<circle class="st1" cx="25" cy="25" r="25"/>
	<g class="st2">
		<path class="st3" d="M10.7,38.2c-0.8,0-1.4-0.6-1.4-1.4v-11h13.2v1c0,0.7,0.6,1.3,1.4,1.3h2.4c0.8,0,1.4-0.6,1.4-1.3v-1h13.2v11
			c0,0.8-0.6,1.4-1.4,1.4H10.7z"/>
		<path class="st3" d="M27.6,24v-0.1c0-0.7-0.6-1.3-1.4-1.3h-2.4c-0.8,0-1.4,0.6-1.4,1.3V24H9.2v-6.7c0-0.7,0.6-1.4,1.4-1.4H20v-1.6
			c0-1.4,1.2-2.5,2.6-2.5h4.8c1.5,0,2.6,1.1,2.6,2.5V16h9.3c0.8,0,1.4,0.6,1.4,1.4V24H27.6z M22.6,13.2c-0.7,0-1.2,0.5-1.2,1.2V16
			h7.2v-1.6c0-0.7-0.6-1.2-1.2-1.2H22.6z"/>
		<path class="st3" d="M24.3,26.6c-0.2,0-0.3-0.1-0.3-0.3v-1.9c0-0.1,0.1-0.3,0.3-0.3h1.4c0.2,0,0.3,0.1,0.3,0.3v1.9
			c0,0.1-0.1,0.3-0.3,0.3H24.3z"/>
	</g>
</g>
<g id="TOOL_KITS_copy">
	<circle class="st4" cx="25" cy="25" r="25"/>
	<g>
		<path class="st3" d="M10.7,38.2c-0.8,0-1.4-0.6-1.4-1.4v-11h13.2v1c0,0.7,0.6,1.3,1.4,1.3h2.4c0.8,0,1.4-0.6,1.4-1.3v-1h13.2v11
			c0,0.8-0.6,1.4-1.4,1.4H10.7z"/>
		<path class="st3" d="M27.6,24v-0.1c0-0.7-0.6-1.3-1.4-1.3h-2.4c-0.8,0-1.4,0.6-1.4,1.3V24H9.2v-6.7c0-0.7,0.6-1.4,1.4-1.4H20v-1.6
			c0-1.4,1.2-2.5,2.6-2.5h4.8c1.5,0,2.6,1.1,2.6,2.5V16h9.3c0.8,0,1.4,0.6,1.4,1.4V24H27.6z M22.6,13.2c-0.7,0-1.2,0.5-1.2,1.2V16
			h7.2v-1.6c0-0.7-0.6-1.2-1.2-1.2H22.6z"/>
		<path class="st3" d="M24.3,26.6c-0.2,0-0.3-0.1-0.3-0.3v-1.9c0-0.1,0.1-0.3,0.3-0.3h1.4c0.2,0,0.3,0.1,0.3,0.3v1.9
			c0,0.1-0.1,0.3-0.3,0.3H24.3z"/>
	</g>
</g>
</svg>
