<?xml version="1.0" encoding="utf-8"?>
<!-- Generator: Adobe Illustrator 19.2.1, SVG Export Plug-In . SVG Version: 6.00 Build 0)  -->
<svg version="1.1" id="Layer_1" xmlns="http://www.w3.org/2000/svg" xmlns:xlink="http://www.w3.org/1999/xlink" x="0px" y="0px"
	 viewBox="0 0 50 50" style="enable-background:new 0 0 50 50;" xml:space="preserve">
<style type="text/css">
	.st0{fill:#F2D047;}
	.st1{fill:#FFFFFF;}
</style>
<circle class="st0" cx="25" cy="25" r="25"/>
<path class="st1" d="M35,13.8c-0.8,0-1.7,1.1-1.7,1.9l0,9.8l-1.5,0l0-13.3c0-0.8-0.9-1.5-1.8-1.5c-1,0-1.7,0.7-1.7,1.5l0,13.3
	l-1.6,0l0-15.3c0-0.9-1.1-1.7-2-1.7c-1,0-1.7,0.8-1.7,1.7v15.3l-1.5,0l-0.5-12.6c0-0.9-1.1-1.8-2.1-1.8c-1,0-1.7,0.8-1.7,1.7l0.4,15
	c0,0.1,0,0.2,0,0.3c-0.1,1.5-1.2,0.8-1.2,0.8s-0.5-1-1.3-4.1c-0.8-3.1-3.9-2.5-4.3-1.6c-0.3,0.8,2.2,9,2.2,9l4.6,9.1
	c0,0-0.7,4.2-0.8,7.3c2.6,0.9,5.4,1.4,8.4,1.4c4,0,7.7-0.9,11.1-2.6c-0.1-2.8-0.5-5.9-0.5-5.9c0,0,1.8-11.9,1.8-14.8
	c0.1-3.2-0.8-9.8-1-10.9C36.2,14.7,35.8,13.8,35,13.8z"/>
</svg>
