<?xml version="1.0" encoding="utf-8"?>
<!-- Generator: Adobe Illustrator 19.2.1, SVG Export Plug-In . SVG Version: 6.00 Build 0)  -->
<svg version="1.1" id="Layer_1" xmlns="http://www.w3.org/2000/svg" xmlns:xlink="http://www.w3.org/1999/xlink" x="0px" y="0px"
	 viewBox="0 0 50 50" style="enable-background:new 0 0 50 50;" xml:space="preserve">
<style type="text/css">
	.st0{fill:#F2D047;}
	.st1{fill:#FFFFFF;}
</style>
<circle class="st0" cx="25" cy="25" r="25"/>
<path class="st1" d="M35.7,27.8c-0.4-0.4-0.8-0.6-1.2-0.7V12.9L33.1,12l-1.3,0.9v14.2c-0.4,0.1-0.8,0.3-1.2,0.7
	c-0.6,0.6-1,1.1-1.1,1.8l-2.1-1.9v4.1l2,2.1v15.6c2.6-0.5,5.1-1.3,7.4-2.6V34l2.2-2.1v-4.1l-2.2,1.9C36.6,28.9,36.2,28.4,35.7,27.8z
	"/>
<path class="st1" d="M18.3,9.5c-0.7,0-1.5,0.1-2.2,0.3c-2.2,0.6-3.8,2.6-4.6,3.5c-0.1,0.1-0.1,0.1-0.1,0.1c-0.5,0.5-0.5,1.3,0,1.8
	c0.2,0.2,0.6,0.4,0.9,0.4c0.3,0,0.7-0.1,0.9-0.4c0.1-0.1,0.2-0.2,0.3-0.4c0.5-0.7,1.8-2.2,3.3-2.6c0.5-0.1,1-0.2,1.5-0.2
	c1,0,2.7,0.2,3.6,1.8c1.1,2,0.3,4.4-0.3,5.4c-0.4,0.6-1.6,2-2.5,3.2c-2,2.4-2.5,3-2.6,3.6c-0.1,0.4-0.1,1.9,0,5.9c0,0.6,0,1.1,0,1.4
	c-0.4,0.1-0.7,0.3-1.1,0.6c-0.7,0.7-1.1,1.4-1.1,2.4v11.1c2.3,1.1,4.8,1.8,7.4,2.2V36.5c0-1.1-0.4-1.7-1.1-2.4
	c-0.5-0.5-1-0.7-1.5-0.8c0-0.3,0-0.8,0-1.4c0-1.5,0-4.5,0-5.4c0.3-0.5,1.3-1.7,2-2.5c1.1-1.3,2.3-2.7,2.8-3.5c0.9-1.5,2-4.9,0.3-7.9
	C23,10.7,20.9,9.5,18.3,9.5z"/>
</svg>
