<?xml version="1.0" encoding="utf-8"?>
<!-- Generator: Adobe Illustrator 19.2.1, SVG Export Plug-In . SVG Version: 6.00 Build 0)  -->
<svg version="1.1" id="Layer_1" xmlns="http://www.w3.org/2000/svg" xmlns:xlink="http://www.w3.org/1999/xlink" x="0px" y="0px"
	 viewBox="0 0 50 50" style="enable-background:new 0 0 50 50;" xml:space="preserve">
<style type="text/css">
	.st0{fill:#F2D047;}
	.st1{fill:#FFFFFF;}
</style>
<circle class="st0" cx="25" cy="25" r="25"/>
<g>
	<path class="st1" d="M15.1,35.3c-0.1,0.7-0.1,1.9,0,3c0.1,1.8,0.4,3.4,0.8,3.6c0.4,0.2,0.7,0.2,0.8,0.1c0.1-0.1,1.1-2.2,2.4-4.8
		l-1.9-0.9L15.1,35.3z"/>
	<path class="st1" d="M28.1,28.7c-0.4-2.4-0.5-5.2-0.3-6.3c0.3-1,5.4-18.6,6-20.8c-1.9-0.7-3.9-1.2-6-1.4c-0.5,1.9-5.7,19.7-6,20.7
		c-0.3,1-1.9,3.1-3.7,4.6s-3.8,3.7-4.5,4.8c-0.8,1.1-1.4,2.2-1.5,2.4c-0.1,0.2,0,0.4,0.2,0.5c0.2,0.1,2.5,1.2,5.1,2.5
		c2.6,1.3,4.8,2.4,5,2.5c0.2,0.1,0.2,0.3,0.1,0.5c-0.1,0.2-0.6,1.3-1.2,2.5c-0.6,1.2-1.1,2.3-1.2,2.5c-0.1,0.2,0.1,0.4,0.5,0.6
		c0,0,0,0,0,0c0.4,0.1,1.8-0.6,3.2-1.6c1.4-1,3.2-3.1,4-4.6c0.7-1.5,1.3-3.2,1.2-3.8C28.9,33.6,28.5,31.1,28.1,28.7z M24.9,33.5
		c-0.1,0.2-0.3,0.7-0.6,1.2c-0.3,0.5-0.5,1.1-0.6,1.2c-0.1,0.2-0.3,0.2-0.5,0.1c-0.2-0.1-1.2-0.6-2.3-1.1c-1.1-0.5-2.1-1-2.3-1.1
		c-0.2-0.1-0.3-0.3-0.2-0.5c0.1-0.2,0.3-0.7,0.6-1.2c0.3-0.5,0.5-1.1,0.6-1.2c0.1-0.2,0.3-0.2,0.5-0.1c0.2,0.1,1.2,0.6,2.3,1.1
		c1.1,0.5,2.1,1,2.3,1.1C24.9,33.1,25,33.3,24.9,33.5z"/>
</g>
<path class="st1" d="M15.2,14.4l0.8,0.6L14,17.3l-0.8-0.6l-0.5,0.6l-0.3,0.3c-0.1-0.1-0.2-0.2-0.3-0.3c-0.1-0.1-0.2-0.2-0.3-0.2
	l0.3-0.3l0.5-0.6l-0.8-0.6l1.9-2.2l0.8,0.6l6.4-7.4l-0.3-0.2L10.6,13l-2.3,2.7l0.2,0.8L8.5,17c-0.2,0.2-0.5,0.3-0.7,0.6
	c-1,1.2-1,3,0.1,4.1c0,0.2-0.1,0.3-0.1,0.5c-0.9-0.9-1.3-2.1-1-3.2c-0.1,0-0.1-0.1-0.1-0.1c-0.2-0.2-0.6-0.5-0.9-0.6
	C5.4,18,5,18,4.8,18.1c-0.2,0.1-0.2,0.5,0.1,0.8c0.2,0.4,0.1,0.8-0.3,0.9c-0.4,0.1-2,1-3.5,1.9c-0.3,0.2-0.6,0.4-0.9,0.7
	C0,23.3,0,24.1,0,25c0,1.2,0.1,2.4,0.3,3.6c0.8-1.6,2.5-3.5,3.9-4.3c1.4-0.8,3-1.7,3.6-1.9c0,0,0,0,0,0c0,0,0,0,0,0
	C7.6,23,7,24.7,6.4,26.3c-0.6,1.5-2.4,3.6-3.9,4.6c-0.5,0.3-1.1,0.7-1.5,1c0.3,1.2,0.8,2.4,1.3,3.5c0.7-0.4,1.8-1,2.9-1.7
	c1.6-1,3.5-3.1,4.2-4.8c0.7-1.6,1.3-3.3,1.4-3.8c0.1-0.4,0.5-0.7,0.9-0.5c0.4,0.2,0.8,0.2,0.8,0c0.1-0.2,0-0.6-0.2-0.8
	c-0.2-0.3-0.5-0.6-0.7-0.8c0,0-0.1-0.1-0.1-0.1c-0.1-0.1-0.2-0.2-0.2-0.4c0.5-0.2,1-0.5,1.4-0.9c0.2-0.2,0.3-0.5,0.5-0.7l0.5,0
	l0.9,0.1l2.3-2.7l5.2-11L21.6,7L15.2,14.4z M10.8,20.1c-0.2,0.2-0.5,0.3-0.8,0.3c-0.1,0-0.3-0.1-0.4-0.2c-0.1-0.1-0.2-0.2-0.2-0.4
	c-0.1-0.3-0.1-0.6,0.1-0.8c0.2-0.2,0.5-0.3,0.8-0.3c0.1,0,0.3,0.1,0.4,0.2c0.1,0.1,0.2,0.2,0.2,0.4C11.1,19.6,11,19.9,10.8,20.1z"/>
<path class="st1" d="M47.3,28.7c-1,0-1.1-0.5-1.1-0.5s-2.2-7.4-2.3-7.8s-0.6-1.7-1-2.3c-0.4-0.6-4.3-4.1-4.8-4.5
	c-0.4-0.3-1.3-0.6-1.6-0.4s-2,1.6-2,1.6l-0.2,0.6l0.4,0.4l0.7-0.3l0.2,0.3l-0.5,0.6l0.3,0.3l0.7-0.3l0.3,0.3l-0.5,0.6l0.3,0.3
	l0.7-0.3l0.3,0.3l-0.5,0.6c0,0,0.3,0.4,0.4,0.5c0.1,0,0.8-0.3,0.8-0.3s-0.3,0.6-0.2,0.8c0.1,0.2,0.5,0.6,0.3,0.7
	c-0.2,0.1-0.4-0.2-0.6-0.3c-0.2-0.1-0.4,0-0.5,0.2c-0.3-0.1-0.7-0.4-0.7-0.4l0.1-0.7l-0.5-0.3l-0.4,0.4l-0.3-0.1l0.1-0.6l-0.5-0.3
	l-0.4,0.5L34,18l0.2-0.6l-0.4-0.2c0,0-0.3,0.4-0.4,0.5c-0.1,0-0.7-0.4-0.7-0.4l-0.1,0.1l-0.2,0.5c0,0-0.2,0.2-0.3,0.4
	c-0.1,0.2-0.4,1-0.5,1.1c0,0.1,0.4,1.4,0.5,1.6c0.1,0.2,2.9,2.6,3,2.7s0.4,0.3,0.8,1.3c0.4,1,1.3,2.9,1.3,2.9L36.4,31
	c0,0-0.5-0.6-0.7-0.6c-0.2-0.1-0.7-0.5-0.7,0c0,0.5,0.4,2.1-0.1,3.4c-0.4,1.3-1.2,2.2-1.2,2.9c-0.1,0.7-0.2,2.1-0.4,2.7
	c-0.2,0.4-2.8,6.8-4.2,10.3c1.6-0.3,3.1-0.7,4.6-1.2c1.8-3.8,4.2-8.8,4.4-9.1c0.3-0.5,1.6-3.3,1.6-3.5s-0.3-0.7-0.3-0.7l0.9-1.5
	l0.5,0.7l1.3-0.6c0,0-0.9,5.9-1.6,11c1.8-1.4,3.4-3,4.8-4.9c0.4-2.3,0.7-4.1,0.8-4.4c0.2-1.2,0.8-4.4,1.3-5.2
	C47.8,29.5,48.3,28.7,47.3,28.7z M40.9,20.8c0,0.6-0.5,1.1-1.1,1c-0.6,0-1.1-0.5-1.1-1.1c0-0.6,0.5-1.1,1.1-1S41,20.2,40.9,20.8z
	 M41.9,30.8c0,0.4-0.3,0.7-0.7,0.7c-0.4,0-0.6-0.3-0.6-0.7s0.3-0.7,0.7-0.7C41.7,30.1,42,30.5,41.9,30.8z"/>
</svg>
