<?xml version="1.0" encoding="utf-8"?>
<!-- Generator: Adobe Illustrator 19.2.1, SVG Export Plug-In . SVG Version: 6.00 Build 0)  -->
<svg version="1.1" id="Layer_1" xmlns="http://www.w3.org/2000/svg" xmlns:xlink="http://www.w3.org/1999/xlink" x="0px" y="0px"
	 viewBox="0 0 50 50" style="enable-background:new 0 0 50 50;" xml:space="preserve">
<style type="text/css">
	.st0{fill:#F2D047;}
	.st1{clip-path:url(#SVGID_2_);}
	.st2{fill:#FFFFFF;}
	.st3{clip-path:url(#SVGID_4_);}
	.st4{display:none;}
	.st5{display:inline;fill:#F2D047;}
	.st6{display:inline;}
</style>
<g id="INTERCHANGEABLE_TOOLS">
	<circle class="st0" cx="25" cy="25" r="25"/>
	<g>
		<g>
			<defs>
				<ellipse id="SVGID_1_" transform="matrix(0.973 -0.2308 0.2308 0.973 -5.095 6.445)" cx="25" cy="25" rx="25" ry="25"/>
			</defs>
			<clipPath id="SVGID_2_">
				<use xlink:href="#SVGID_1_"  style="overflow:visible;"/>
			</clipPath>
			<g class="st1">
				<g>
					<g>
						<path class="st2" d="M44.9,19.3c0.7-2.8-0.9-3.9-3-5.5s-10.7-4.6-12-4.5c-1.3,0.1-3,2.3-3.9,4.1c0,0-1,1.8-1.7,3.3
							c-0.6,1.4-1.6,5.5-0.5,7.3c0.6,1.3,3.2,2.4,3.5,2.6c0.4,0.2,0.5,1.8-0.5,5s-6.1,15.3-7.4,18.6c-1.3,3.2-4.4,7.1-4.6,7.6
							C14.5,58.3,6.4,76,5.6,78c-0.8,2.1-0.2,4.7,2.6,6c2.9,1.3,4.6-0.7,5.3-1.8s8.6-17.7,9.3-19.5c0.7-1.8,1.1-5.5,3.8-11
							c2.7-5.6,9.4-19.4,10.6-21.2c2.1-0.4,4-2.6,4.6-3.1c1.3,0.6,3.3,0,4.1-1.1c0.7-1.2,0.9-2.5,1.1-3.8
							C47.2,21.1,45.8,19.8,44.9,19.3z M30.3,18.3c-1.2,3.5-3.8,5.5-5.5,4.9c-0.8-1.4-0.1-4.8,0.5-6.2c0.5-1.3,1.5-2.9,1.5-2.9
							c0.9-1.8,2.4-3.4,3.2-3.5C31.7,11.3,31.5,14.8,30.3,18.3z"/>
					</g>
				</g>
				<path class="st2" d="M31,16L25,13.5L24.1,14L23,16.6v1.2l0.5,0.4l5.6,2.4c0,0,1.3-0.6,1.9-1.8C31.7,17.5,31,16,31,16z"/>
			</g>
		</g>
	</g>
	<g>
		<g>
			<defs>
				<ellipse id="SVGID_3_" transform="matrix(0.973 -0.2308 0.2308 0.973 -5.095 6.445)" cx="25" cy="25" rx="25" ry="25"/>
			</defs>
			<clipPath id="SVGID_4_">
				<use xlink:href="#SVGID_3_"  style="overflow:visible;"/>
			</clipPath>
			<g class="st3">
				<g>
					<path class="st2" d="M16.1,19.8c-0.5-1.5-2.1-2.6-2.1-2.6l-0.4-1.6c0,0-0.9-1.2-3.8-0.5c-3,0.7-3.2,2.1-3.2,2.1L7,18.8
						c0,0-0.9,1.7-0.7,3.3c0.2,1.6,4.4,16.8,4.4,16.8c0.3,0.6,2.9,0.6,4.8,0.2s4.2-1.6,4.2-2.3C19.6,36.8,16.6,21.3,16.1,19.8z
						 M15.3,38.3c-2.4,0.6-3.9,0.2-4,0c0.1-0.2,1.3-1.6,3.7-2.2c2.4-0.6,3.8,0.2,4,0.5C18.8,36.8,17.6,37.8,15.3,38.3z"/>
				</g>
			</g>
		</g>
	</g>
</g>
<g id="TOOL_KITS_copy" class="st4">
	<circle class="st5" cx="25" cy="25" r="25"/>
	<g class="st6">
		<path class="st2" d="M10.7,38.2c-0.8,0-1.4-0.6-1.4-1.4v-11h13.2v1c0,0.7,0.6,1.3,1.4,1.3h2.4c0.8,0,1.4-0.6,1.4-1.3v-1h13.2v11
			c0,0.8-0.6,1.4-1.4,1.4H10.7z"/>
		<path class="st2" d="M27.6,24v-0.1c0-0.7-0.6-1.3-1.4-1.3h-2.4c-0.8,0-1.4,0.6-1.4,1.3V24H9.2v-6.7c0-0.7,0.6-1.4,1.4-1.4H20v-1.6
			c0-1.4,1.2-2.5,2.6-2.5h4.8c1.5,0,2.6,1.1,2.6,2.5V16h9.3c0.8,0,1.4,0.6,1.4,1.4V24H27.6z M22.6,13.2c-0.7,0-1.2,0.5-1.2,1.2V16
			h7.2v-1.6c0-0.7-0.6-1.2-1.2-1.2H22.6z"/>
		<path class="st2" d="M24.3,26.6c-0.2,0-0.3-0.1-0.3-0.3v-1.9c0-0.1,0.1-0.3,0.3-0.3h1.4c0.2,0,0.3,0.1,0.3,0.3v1.9
			c0,0.1-0.1,0.3-0.3,0.3H24.3z"/>
	</g>
</g>
</svg>
