<?xml version="1.0" encoding="utf-8"?>
<!-- Generator: Adobe Illustrator 19.2.1, SVG Export Plug-In . SVG Version: 6.00 Build 0)  -->
<svg version="1.1" id="Layer_1" xmlns="http://www.w3.org/2000/svg" xmlns:xlink="http://www.w3.org/1999/xlink" x="0px" y="0px"
	 viewBox="0 0 50 50" style="enable-background:new 0 0 50 50;" xml:space="preserve">
<style type="text/css">
	.st0{fill:#F2D047;}
	.st1{fill:#FFFFFF;}
</style>
<circle class="st0" cx="25" cy="25" r="25"/>
<path class="st1" d="M33.1,6l-0.9-1l-4.7,3L27,9.8L16.7,20.3L15.4,19c-0.8-0.8-1.6-1.3-1.7-1.2l-1.8,1.8c-0.1,0.1,0.1,0.4,0.5,0.9
	c-0.1,1-0.6,2-1.4,2.8c-0.8,0.8-1.7,1.2-2.6,1.4c-0.7-0.2-1.5,0-2.1,0.5l-5.6,5.6c0.2,0.7,0.4,1.5,0.6,2.2l6-6c0.3-0.3,0.7-0.3,1,0
	c0.3,0.3,0.3,0.7,0,1l-6.4,6.4c0.5,1.2,1.1,2.4,1.8,3.5l7.3-7.3c0.3-0.3,0.7-0.3,1,0c0.3,0.3,0.3,0.7,0,1l-7.5,7.5
	c0.4,0.5,0.8,1.1,1.2,1.6l8.1-8.1c0.6-0.6,0.8-1.4,0.5-2.1c0.2-0.9,0.6-1.9,1.4-2.6c0.8-0.8,1.8-1.3,2.8-1.4
	c0.5,0.4,0.8,0.6,0.9,0.5l1.8-1.8c0.1-0.1-0.4-0.9-1.2-1.7l-1-1l10.3-10.6l1.7-0.5l3.1-4.7L33.1,6z"/>
<path class="st1" d="M49.3,19.1c-0.9-3.7-2.6-7.1-5-10l-8.1,8.1c-0.6,0.6-0.8,1.4-0.5,2.1c-0.2,0.9-0.6,1.9-1.4,2.6
	c-0.8,0.8-1.8,1.3-2.8,1.4c-0.5-0.4-0.8-0.6-0.9-0.5l-1.8,1.8c-0.1,0.1,0.4,0.9,1.2,1.7l1.2,1.2L20.7,37.9l-1-0.3
	c0,0-4.4,4.4-4.5,4.5c-0.1,0.1,0.1,0.9,1.3,2.1s2.1,1.5,2.2,1.4s4.5-4.5,4.5-4.5l-0.3-1l10.5-10.4l1.1,1.1c0.8,0.8,1.6,1.3,1.7,1.2
	l1.8-1.8c0.1-0.1-0.1-0.4-0.5-0.9c0.1-1,0.6-2,1.4-2.8c0.8-0.8,1.7-1.2,2.6-1.4c0.7,0.2,1.5,0,2.1-0.5L49.3,19.1z M18.4,45.1
	c-0.1,0.1-0.9-0.3-1.7-1c-0.7-0.7-1.1-1.6-1-1.6c0.1-0.1,1,0.2,1.7,1S18.5,45.1,18.4,45.1z"/>
</svg>
