<?xml version="1.0" encoding="utf-8"?>
<!-- Generator: Adobe Illustrator 19.2.1, SVG Export Plug-In . SVG Version: 6.00 Build 0)  -->
<svg version="1.1" id="Layer_1" xmlns="http://www.w3.org/2000/svg" xmlns:xlink="http://www.w3.org/1999/xlink" x="0px" y="0px"
	 viewBox="0 0 50 50" style="enable-background:new 0 0 50 50;" xml:space="preserve">
<style type="text/css">
	.st0{fill:#F2D047;}
	.st1{fill:#FFFFFF;}
</style>
<circle class="st0" cx="25" cy="25" r="25"/>
<g>
	
		<rect x="10.3" y="16.9" transform="matrix(0.7532 -0.6578 0.6578 0.7532 -8.0151 18.0669)" class="st1" width="19.6" height="5.7"/>
	<path class="st1" d="M33.8,27.4c0.1-3.1-1.2-6.8-3.9-9.8L16.6,29.1c2.7,3.1,6.1,4.9,9.2,5.2L36.9,47c3.2-1.7,5.9-4.1,8.1-6.9
		L33.8,27.4z M34.8,36.5c-1,0.9-2.6,0.8-3.5-0.2c-0.9-1-0.8-2.6,0.2-3.5c1-0.9,2.6-0.8,3.5,0.2C35.9,34.1,35.8,35.6,34.8,36.5z"/>
	<path class="st1" d="M11.4,18.8c0.1-0.3-0.1-0.5-0.3-0.6l-3-0.9c-0.3-0.1-0.5,0.1-0.6,0.3s0.1,0.5,0.3,0.6l3,0.9c0,0,0.1,0,0.1,0
		C11.1,19.2,11.3,19,11.4,18.8z"/>
	<path class="st1" d="M13.6,16.3c0.1,0.1,0.2,0.1,0.3,0.1c0.1,0,0.3-0.1,0.4-0.2c0.2-0.2,0.1-0.5-0.1-0.7l-3.7-2.9
		c-0.2-0.2-0.5-0.1-0.7,0.1c-0.2,0.2-0.1,0.5,0.1,0.7L13.6,16.3z"/>
	<path class="st1" d="M16.4,13.5c0.1,0.1,0.3,0.2,0.4,0.2c0.1,0,0.2,0,0.3-0.1c0.2-0.1,0.3-0.5,0.2-0.7l-2.7-4.2
		c-0.1-0.2-0.5-0.3-0.7-0.2c-0.2,0.1-0.3,0.5-0.2,0.7L16.4,13.5z"/>
	<path class="st1" d="M20,11c0.1,0.2,0.3,0.4,0.5,0.4c0,0,0.1,0,0.1,0c0.3-0.1,0.4-0.4,0.3-0.6l-1-3.4C19.8,7,19.5,6.9,19.3,7
		c-0.3,0.1-0.4,0.4-0.3,0.6L20,11z"/>
</g>
</svg>
