<?xml version="1.0" encoding="utf-8"?>
<!-- Generator: Adobe Illustrator 19.2.1, SVG Export Plug-In . SVG Version: 6.00 Build 0)  -->
<svg version="1.1" id="Layer_1" xmlns="http://www.w3.org/2000/svg" xmlns:xlink="http://www.w3.org/1999/xlink" x="0px" y="0px"
	 viewBox="0 0 50 50" style="enable-background:new 0 0 50 50;" xml:space="preserve">
<style type="text/css">
	.st0{fill:#F2D047;}
	.st1{fill-rule:evenodd;clip-rule:evenodd;fill:#FFFFFF;}
</style>
<circle class="st0" cx="25" cy="25" r="25"/>
<path class="st1" d="M18.6,41.9c-2,0-3.9-0.5-5.4-1.1C11.4,40,10,39,9.4,38.2C9.2,38,9.1,37.7,9,37.5c-0.3-0.8-0.2-1.4,0-1.9
	c0.3-0.5,0.8-0.9,1.3-1.1l1-0.4c2.3-0.9,3-1.2,4.2-2.7c0.2-0.3,0.6-1.1,1-1.9c0.4-0.9,0.8-1.8,1-2.3c0.1-0.5,0.2-0.8,0.2-1.2
	c0-0.4,0-1-0.1-1.8c-0.1-0.7-0.1-2-0.1-3.3c0-2-0.1-4.1-0.1-5.2c0-1.4,0.3-2.6,1.1-3.7c0.9-1.3,2.3-2.5,3.7-3.1
	c0.9-0.4,1.9-0.6,2.8-0.6c0.9,0,1.9,0.2,2.8,0.6c1.4,0.7,2.8,1.8,3.7,3.1c0.8,1.1,1.1,2.3,1.1,3.7c0,1.1,0,3.2-0.1,5.2
	c0,1.3-0.1,2.6-0.1,3.3c-0.1,0.8-0.1,1.3-0.1,1.8c0,0.4,0.1,0.7,0.2,1.2c0.2,0.5,0.6,1.5,1,2.3c0.4,0.8,0.8,1.6,1,1.9
	c1.2,1.6,1.9,1.8,4.2,2.7l1,0.4c0.5,0.2,1,0.6,1.3,1.1c0.3,0.5,0.3,1.1,0,1.9c-0.1,0.3-0.2,0.5-0.4,0.7c-0.6,0.8-2,1.9-3.8,2.6
	c-1.6,0.7-3.4,1.1-5.4,1.1H25H18.6L18.6,41.9z M22.6,25.6c1.5,0.7,3.3,0.7,4.8,0c1.6-0.8,2.3-2.1,2.6-3.8c0.1-0.6,0.1-1.1,0.1-1.6
	c0-1-0.1-2.2-0.3-3.3c0-0.2-0.1-0.4-0.1-0.5c-0.2-0.5-0.7-0.9-1.3-1.2c-1.8-0.8-5.1-0.8-6.8,0c-0.6,0.3-1.1,0.7-1.3,1.2
	c-0.1,0.2-0.1,0.3-0.1,0.5c-0.2,1-0.2,2.3-0.3,3.3c0,0.5,0,1,0.1,1.6C20.3,23.5,21,24.8,22.6,25.6L22.6,25.6z"/>
</svg>
