<?xml version="1.0" encoding="utf-8"?>
<!-- Generator: Adobe Illustrator 19.2.1, SVG Export Plug-In . SVG Version: 6.00 Build 0)  -->
<svg version="1.1" id="EXPANDED" xmlns="http://www.w3.org/2000/svg" xmlns:xlink="http://www.w3.org/1999/xlink" x="0px" y="0px"
	 viewBox="0 0 500 500" style="enable-background:new 0 0 500 500;" xml:space="preserve">
<style type="text/css">
	.st0{fill:#EC2024;}
	.st1{fill:#FFFFFF;}
	.st2{fill:#2B5269;}
</style>
<g>
	<g>
		<g>
			<path class="st0" d="M85.2,92.5c1.1,1.1,1.7,2.5,1.7,4c0,1.5-0.6,2.9-1.8,4.1c-1.2,1.2-2.6,1.8-4.1,1.8c-1.5,0-2.9-0.6-4-1.7
				c-1.2-1.2-1.8-2.5-1.7-4.1c0-1.5,0.6-2.9,1.8-4.1c1.2-1.2,2.6-1.8,4.1-1.8C82.7,90.7,84,91.3,85.2,92.5z"/>
			<path class="st0" d="M81,102.9c-1.7,0-3.1-0.6-4.4-1.8c-1.3-1.3-1.9-2.7-1.9-4.4c0-1.7,0.7-3.2,1.9-4.4c1.3-1.3,2.8-2,4.4-2
				c1.6,0,3.2,0.6,4.4,1.9l0,0c1.2,1.2,1.9,2.7,1.9,4.4c0,1.7-0.6,3.2-1.9,4.5C84.2,102.3,82.7,102.9,81,102.9
				C81,102.9,81,102.9,81,102.9z M81.2,91.3C81.2,91.3,81.2,91.3,81.2,91.3c-1.5,0-2.7,0.6-3.8,1.7c-1.1,1.1-1.6,2.3-1.7,3.8
				c0,1.4,0.5,2.6,1.6,3.7c1.1,1.1,2.3,1.6,3.7,1.6c1.4,0,2.7-0.6,3.8-1.7c1.1-1.1,1.6-2.3,1.6-3.8c0-1.4-0.5-2.6-1.6-3.7l0,0
				C83.8,91.8,82.6,91.3,81.2,91.3z"/>
		</g>
		<g>
			<path class="st0" d="M124.7,40.2l19.8,19l0.1,0l-4.2-27l10.6-5.4l17.2,33.6l-7.1,3.6L149,40.1l-0.1,0l3.8,28.1l-5.8,3l-20.4-19.3
				l-0.1,0l12,23.6l-7.1,3.6l-17.2-33.6L124.7,40.2z"/>
			<path class="st0" d="M131,79.8l-17.6-34.5l11.4-5.8l19.1,18.3l-4.1-26l11.4-5.8l17.6,34.5l-7.9,4.1l-11.2-21.9l3.5,25.9l-6.4,3.3
				l-18.8-17.8L139,75.8L131,79.8z M114.8,45.8l16.7,32.7l6.2-3.1l-12-23.6l0.9-0.4l20.4,19.3l5.2-2.6l-3.8-28.1l0.9-0.4l12.2,23.8
				l6.2-3.1l-16.7-32.7l-9.8,5l4.2,27l-0.7,0.4l-19.8-19L114.8,45.8z"/>
		</g>
		<g>
			<path class="st0" d="M217.4,10L237,45.3l-8.7,1.2l-4.1-7.9l-14.3,2l-1.8,8.7l-8.4,1.2l9.1-39.4L217.4,10z M221.1,32.9l-6.8-13
				l-0.1,0l-3,14.4L221.1,32.9z"/>
			<path class="st0" d="M199.1,51.3l9.3-40.5l9.3-1.3l20.1,36.2l-9.8,1.4l-4.1-7.9l-13.6,1.9l-1.8,8.7L199.1,51.3z M209.2,11.7
				l-8.8,38.4l7.4-1.1l1.8-8.7l15-2.1l4.1,7.9l7.6-1.1l-19.1-34.4L209.2,11.7z M210.6,34.9l3.2-15.5l0.8-0.1l7.3,14L210.6,34.9z
				 M214.5,21.2l-2.6,12.5l8.5-1.2L214.5,21.2z"/>
		</g>
		<g>
			<path class="st0" d="M292.6,11.5c2.4,0.4,4.7,1.2,6.6,2.3c2,1.1,3.6,2.6,4.9,4.3c1.3,1.8,2.2,3.9,2.7,6.3c0.5,2.4,0.5,5.2,0,8.3
				c-0.4,2.7-1.2,5.2-2.3,7.3c-1.1,2.2-2.5,4-4.2,5.4c-1.7,1.4-3.7,2.5-6,3.1c-2.3,0.6-4.9,0.7-7.8,0.2l-16.4-2.7l6.1-37.2
				L292.6,11.5z M287,41.8c1.2,0.2,2.4,0.2,3.6,0c1.2-0.2,2.3-0.7,3.3-1.4c1-0.7,1.9-1.8,2.7-3.1c0.8-1.3,1.3-3,1.7-5.1
				c0.3-1.9,0.4-3.6,0.3-5.2c-0.1-1.6-0.5-3-1.2-4.2c-0.7-1.2-1.7-2.2-3-3c-1.3-0.8-3-1.4-5-1.7l-6-1l-3.8,23.5L287,41.8z"/>
			<path class="st0" d="M290.1,49.6c-1.2,0-2.4-0.1-3.7-0.3l-16.9-2.8l6.3-38.2l16.9,2.8c2.5,0.4,4.8,1.2,6.8,2.3
				c2,1.1,3.7,2.7,5.1,4.5c1.3,1.8,2.3,4,2.8,6.5c0.5,2.5,0.5,5.3,0,8.5c-0.5,2.7-1.2,5.3-2.3,7.5c-1.1,2.2-2.6,4.1-4.3,5.6
				c-1.8,1.5-3.9,2.5-6.2,3.2C293.1,49.4,291.7,49.6,290.1,49.6z M270.6,45.6l15.9,2.6c2.8,0.5,5.4,0.4,7.6-0.2
				c2.2-0.6,4.2-1.6,5.8-3c1.6-1.4,3-3.2,4.1-5.3c1.1-2.1,1.8-4.5,2.2-7.2c0.5-3,0.5-5.7,0-8.1c-0.5-2.4-1.3-4.4-2.6-6.1
				c-1.2-1.7-2.8-3.1-4.8-4.2c-1.9-1.1-4.1-1.8-6.5-2.2v0l-15.9-2.6L270.6,45.6z M288.8,42.4c-0.6,0-1.3-0.1-1.9-0.2L279,41l4-24.5
				l6.5,1.1c2.1,0.3,3.9,0.9,5.2,1.8c1.4,0.8,2.4,1.9,3.1,3.2c0.7,1.3,1.1,2.8,1.3,4.4c0.1,1.6,0,3.4-0.3,5.3
				c-0.3,2.1-0.9,3.9-1.7,5.3c-0.8,1.4-1.8,2.5-2.8,3.3c-1.1,0.8-2.3,1.3-3.6,1.5C290.1,42.4,289.4,42.4,288.8,42.4z M287.1,41.3
				c1.1,0.2,2.3,0.2,3.4,0c1.1-0.2,2.2-0.6,3.1-1.3c1-0.7,1.8-1.7,2.6-3c0.7-1.3,1.3-2.9,1.6-4.9c0.3-1.8,0.4-3.5,0.3-5.1
				c-0.1-1.5-0.5-2.8-1.1-4c-0.6-1.1-1.6-2.1-2.8-2.8c-1.2-0.8-2.9-1.3-4.9-1.6l-5.5-0.9l-3.7,22.5L287.1,41.3z"/>
		</g>
		<g>
			<path class="st0" d="M380.1,42.5l-3.2,6.2l-18.1-9.2l-3.7,7.2l16.6,8.4l-2.9,5.8l-16.6-8.4l-4.2,8.2l18.5,9.4l-3.2,6.2
				l-26.1-13.2l17-33.7L380.1,42.5z"/>
			<path class="st0" d="M363.6,77.1l-27-13.7l17.5-34.5l26.6,13.5l-3.6,7.1L359,40.2l-3.2,6.3l16.6,8.4l-3.4,6.6l-16.6-8.4l-3.7,7.4
				l18.5,9.4L363.6,77.1z M338,63l25.2,12.8l2.7-5.3L347.4,61l4.6-9.1l16.6,8.4l2.5-4.9L354.5,47l4.1-8.1l18.1,9.2l2.7-5.3
				l-24.8-12.6L338,63z"/>
		</g>
		<g>
			<path class="st0" d="M420.7,98.4c-1.1,1.2-2.5,1.7-4,1.8c-1.5,0-2.9-0.6-4.1-1.7c-1.2-1.2-1.8-2.5-1.8-4.1c0-1.5,0.5-2.9,1.7-4.1
				c1.2-1.2,2.5-1.8,4-1.8c1.5,0,2.9,0.6,4.1,1.8c1.2,1.2,1.8,2.5,1.9,4.1C422.4,95.8,421.9,97.2,420.7,98.4z"/>
			<path class="st0" d="M416.6,100.6c-1.6,0-3.1-0.6-4.4-1.9c-1.3-1.3-2-2.8-2-4.4c0-1.7,0.6-3.2,1.8-4.4c1.2-1.3,2.7-1.9,4.4-1.9
				c0,0,0,0,0,0c1.7,0,3.2,0.6,4.4,1.9c1.3,1.3,2,2.8,2,4.4c0,1.7-0.6,3.2-1.8,4.4C419.9,100,418.4,100.6,416.6,100.6
				C416.7,100.6,416.7,100.6,416.6,100.6z M416.4,88.9C416.4,88.9,416.4,88.9,416.4,88.9c-1.4,0-2.6,0.5-3.7,1.6
				c-1,1.1-1.5,2.3-1.5,3.7c0,1.4,0.6,2.6,1.7,3.7c1.1,1.1,2.3,1.6,3.7,1.6c0,0,0,0,0.1,0c1.4,0,2.6-0.5,3.7-1.6v0
				c1.1-1.1,1.6-2.3,1.5-3.7c0-1.4-0.6-2.6-1.7-3.7C419.1,89.5,417.8,88.9,416.4,88.9z"/>
		</g>
	</g>
	<g>
		<circle class="st0" cx="250" cy="252.7" r="184.3"/>
	</g>
	<g>
		<circle class="st1" cx="250" cy="252.7" r="178.1"/>
	</g>
	<g>
		<path class="st2" d="M401.9,172C373,117.7,315.8,80.6,250,80.6s-123,37-151.9,91.3H401.9z"/>
	</g>
	<g>
		<g>
			<path class="st1" d="M180,125.8v21.1h-4.7v-21.1H180z"/>
		</g>
		<g>
			<path class="st1" d="M197.9,125.8l8.9,14.1h0.1v-14.1h4.4v21.1h-4.7l-8.9-14.1h-0.1v14.1h-4.4v-21.1H197.9z"/>
		</g>
		<g>
			<path class="st1" d="M240.1,129.6v-3.9h17.6v3.9h-6.4v17.2h-4.7v-17.2H240.1z"/>
		</g>
		<g>
			<path class="st1" d="M273.8,125.8v8.1h8.7v-8.1h4.7v21.1h-4.7v-9.1h-8.7v9.1h-4.7v-21.1H273.8z"/>
		</g>
		<g>
			<path class="st1" d="M316.4,125.8v3.9h-11.3v4.5h10.4v3.6h-10.4v5.2h11.6v3.9h-16.3v-21.1H316.4z"/>
		</g>
	</g>
	<g>
		<g>
			<path class="st0" d="M114.5,358.7v-28H96.7C101.7,340.6,107.7,350,114.5,358.7z"/>
		</g>
		<g>
			<path class="st0" d="M144.6,388.6c9.3,7.2,19.4,13.5,30.1,18.7v-76.7h-30.1V388.6z"/>
		</g>
		<g>
			<path class="st0" d="M204.8,418.7c9.7,2.6,19.8,4.4,30.1,5.3v-93.3h-30.1V418.7z"/>
		</g>
		<g>
			<path class="st0" d="M265.1,424c10.3-0.9,20.4-2.7,30.1-5.3v-88h-30.1V424z"/>
		</g>
		<g>
			<path class="st0" d="M325.3,407.4c10.7-5.2,20.8-11.5,30.1-18.7v-57.9h-30.1V407.4z"/>
		</g>
		<g>
			<path class="st0" d="M403.3,330.7h-17.9v28C392.3,350,398.3,340.6,403.3,330.7z"/>
		</g>
	</g>
	<g>
		<g>
			<path class="st1" d="M114.5,358.7c8.8,11.2,18.9,21.2,30.1,29.9v-57.9h-30.1V358.7z"/>
		</g>
		<g>
			<path class="st1" d="M174.7,407.4c9.6,4.7,19.6,8.5,30.1,11.3v-88h-30.1V407.4z"/>
		</g>
		<g>
			<path class="st1" d="M234.9,424c5,0.4,10,0.7,15.1,0.7s10.1-0.2,15.1-0.7v-93.3h-30.1V424z"/>
		</g>
		<g>
			<path class="st1" d="M295.2,418.7c10.5-2.8,20.5-6.6,30.1-11.3v-76.7h-30.1V418.7z"/>
		</g>
		<g>
			<path class="st1" d="M355.4,388.6c11.2-8.7,21.3-18.8,30.1-29.9v-28h-30.1V388.6z"/>
		</g>
	</g>
	<g>
		<g>
			<path class="st1" d="M403.9,172H96.1c-12.7,24.1-19.8,51.5-19.8,80.7s7.2,56.6,19.8,80.7h307.8c12.7-24.1,19.8-51.5,19.8-80.7
				S416.6,196.1,403.9,172z"/>
		</g>
	</g>
	<g>
		<g>
			<path class="st0" d="M140.2,266.7c0,2.1,0.1,4,0.4,5.8c0.3,1.8,0.8,3.3,1.5,4.6c0.8,1.3,1.8,2.3,3.1,3c1.3,0.7,3,1.1,4.9,1.1
				c2.1,0,3.7-0.4,5-1.1c1.3-0.7,2.3-1.8,3-3c0.8-1.3,1.3-2.8,1.5-4.6c0.3-1.8,0.4-3.7,0.4-5.8v-58.3h17.2v58.3
				c0,5.3-0.8,9.7-2.3,13.2c-1.5,3.5-3.5,6.2-6.1,8.3c-2.5,2-5.4,3.4-8.7,4.1c-3.3,0.7-6.6,1.1-10.1,1.1c-3.5,0-6.9-0.3-10.1-0.9
				c-3.3-0.6-6.2-1.9-8.7-3.8c-2.5-1.9-4.6-4.6-6.1-8.1c-1.5-3.5-2.3-8.1-2.3-13.7v-58.3h17.2V266.7z"/>
		</g>
		<g>
			<path class="st0" d="M237.8,268.3c0,2,0.2,3.7,0.5,5.3c0.3,1.6,0.9,2.9,1.8,4c0.9,1.1,2,2,3.5,2.6c1.5,0.6,3.3,0.9,5.5,0.9
				c2.6,0,5-0.8,7.1-2.5c2.1-1.7,3.2-4.3,3.2-7.8c0-1.9-0.3-3.5-0.8-4.9c-0.5-1.4-1.4-2.6-2.6-3.7c-1.2-1.1-2.8-2.1-4.7-3
				c-1.9-0.9-4.3-1.8-7.2-2.8c-3.8-1.2-7.1-2.6-9.9-4.1c-2.8-1.5-5.1-3.2-7-5.2c-1.9-2-3.2-4.3-4.1-6.9c-0.9-2.6-1.3-5.6-1.3-9.1
				c0-8.3,2.3-14.4,7-18.5c4.7-4.1,11.1-6.1,19.3-6.1c3.8,0,7.3,0.4,10.5,1.2c3.2,0.8,6,2.1,8.3,4c2.3,1.8,4.2,4.2,5.5,7
				c1.3,2.9,2,6.3,2,10.2v2.3H258c0-4-0.7-7-2.1-9.2c-1.4-2.1-3.8-3.2-7.2-3.2c-1.9,0-3.5,0.3-4.8,0.8c-1.3,0.5-2.3,1.3-3,2.2
				c-0.8,0.9-1.3,1.9-1.5,3.1c-0.3,1.2-0.4,2.4-0.4,3.6c0,2.6,0.6,4.7,1.7,6.5c1.1,1.8,3.5,3.4,7.2,4.9l13.2,5.6
				c3.3,1.4,5.9,2.9,8,4.4c2.1,1.5,3.7,3.2,4.9,4.9c1.2,1.8,2.1,3.7,2.6,5.8c0.5,2.1,0.7,4.5,0.7,7c0,8.8-2.6,15.2-7.8,19.3
				c-5.2,4-12.5,6-21.8,6c-9.7,0-16.6-2.1-20.8-6.2c-4.2-4.1-6.3-10.1-6.3-17.8v-3.4h17.2V268.3z"/>
		</g>
		<g>
			<path class="st0" d="M359.4,208.4l22.5,83.6H364l-3.9-17.7h-22.6l-3.9,17.7h-17.9l22.5-83.6H359.4z M357.1,260.5l-8.2-37.6h-0.2
				l-8.2,37.6H357.1z"/>
		</g>
	</g>
	<g>
		<g>
			<g>
				<polygon class="st2" points="214.9,180.4 217,184.6 221.7,185.3 218.3,188.6 219.1,193.3 214.9,191.1 210.7,193.3 211.5,188.6 
					208.1,185.3 212.8,184.6 				"/>
			</g>
			<g>
				<polygon class="st2" points="179.8,180.4 181.9,184.6 186.6,185.3 183.2,188.6 184,193.3 179.8,191.1 175.5,193.3 176.3,188.6 
					172.9,185.3 177.7,184.6 				"/>
			</g>
			<g>
				<polygon class="st2" points="144.6,180.4 146.8,184.6 151.5,185.3 148.1,188.6 148.9,193.3 144.6,191.1 140.4,193.3 
					141.2,188.6 137.8,185.3 142.5,184.6 				"/>
			</g>
			<g>
				<polygon class="st2" points="109.5,180.4 111.6,184.6 116.4,185.3 112.9,188.6 113.7,193.3 109.5,191.1 105.3,193.3 
					106.1,188.6 102.7,185.3 107.4,184.6 				"/>
			</g>
			<g>
				<g>
					<polygon class="st2" points="390.5,180.4 392.6,184.6 397.3,185.3 393.9,188.6 394.7,193.3 390.5,191.1 386.3,193.3 
						387.1,188.6 383.6,185.3 388.4,184.6 					"/>
				</g>
				<g>
					<polygon class="st2" points="355.4,180.4 357.5,184.6 362.2,185.3 358.8,188.6 359.6,193.3 355.4,191.1 351.1,193.3 
						351.9,188.6 348.5,185.3 353.2,184.6 					"/>
				</g>
				<g>
					<polygon class="st2" points="320.2,180.4 322.3,184.6 327.1,185.3 323.7,188.6 324.5,193.3 320.2,191.1 316,193.3 316.8,188.6 
						313.4,185.3 318.1,184.6 					"/>
				</g>
				<g>
					<polygon class="st2" points="285.1,180.4 287.2,184.6 291.9,185.3 288.5,188.6 289.3,193.3 285.1,191.1 280.9,193.3 
						281.7,188.6 278.3,185.3 283,184.6 					"/>
				</g>
				<g>
					<polygon class="st2" points="250,180.4 252.1,184.6 256.8,185.3 253.4,188.6 254.2,193.3 250,191.1 245.8,193.3 246.6,188.6 
						243.2,185.3 247.9,184.6 					"/>
				</g>
			</g>
		</g>
		<g>
			<g>
				<polygon class="st2" points="214.9,307.8 217,312.1 221.7,312.8 218.3,316.1 219.1,320.8 214.9,318.6 210.7,320.8 211.5,316.1 
					208.1,312.8 212.8,312.1 				"/>
			</g>
			<g>
				<polygon class="st2" points="179.8,307.8 181.9,312.1 186.6,312.8 183.2,316.1 184,320.8 179.8,318.6 175.5,320.8 176.3,316.1 
					172.9,312.8 177.7,312.1 				"/>
			</g>
			<g>
				<polygon class="st2" points="144.6,307.8 146.8,312.1 151.5,312.8 148.1,316.1 148.9,320.8 144.6,318.6 140.4,320.8 
					141.2,316.1 137.8,312.8 142.5,312.1 				"/>
			</g>
			<g>
				<polygon class="st2" points="109.5,307.8 111.6,312.1 116.4,312.8 112.9,316.1 113.7,320.8 109.5,318.6 105.3,320.8 
					106.1,316.1 102.7,312.8 107.4,312.1 				"/>
			</g>
			<g>
				<g>
					<polygon class="st2" points="390.5,307.8 392.6,312.1 397.3,312.8 393.9,316.1 394.7,320.8 390.5,318.6 386.3,320.8 
						387.1,316.1 383.6,312.8 388.4,312.1 					"/>
				</g>
				<g>
					<polygon class="st2" points="355.4,307.8 357.5,312.1 362.2,312.8 358.8,316.1 359.6,320.8 355.4,318.6 351.1,320.8 
						351.9,316.1 348.5,312.8 353.2,312.1 					"/>
				</g>
				<g>
					<polygon class="st2" points="320.2,307.8 322.3,312.1 327.1,312.8 323.7,316.1 324.5,320.8 320.2,318.6 316,320.8 316.8,316.1 
						313.4,312.8 318.1,312.1 					"/>
				</g>
				<g>
					<polygon class="st2" points="285.1,307.8 287.2,312.1 291.9,312.8 288.5,316.1 289.3,320.8 285.1,318.6 280.9,320.8 
						281.7,316.1 278.3,312.8 283,312.1 					"/>
				</g>
				<g>
					<polygon class="st2" points="250,307.8 252.1,312.1 256.8,312.8 253.4,316.1 254.2,320.8 250,318.6 245.8,320.8 246.6,316.1 
						243.2,312.8 247.9,312.1 					"/>
				</g>
			</g>
		</g>
	</g>
	<g>
		<g>
			<g>
				<path class="st2" d="M52.3,149.9c5.3-11.6,3.7-24.9,3.7-24.9s-13,5.6-18.7,18.1c-4.5,9.8-2.7,20-1.7,23.8
					c-0.2-0.1-0.3-0.1-0.4-0.2c-28.7,90.5-5.5,183,61.6,250c9.8,9.2,20.4,17.6,31.6,25c25.1,15.7,50.9,26.4,79.6,33.5
					c0.2-1.1,0.4-1.7,0.6-2.8c-28.4-7-53.8-17.6-78.6-33.1c-11.1-7.3-21.5-15.6-31.2-24.7C32.3,348.3,9.5,257,37.8,167.5
					c-0.2-0.1-0.3-0.1-0.4-0.2C40.5,165.1,48.1,159,52.3,149.9z"/>
				<path class="st2" d="M76.2,426c0,0,8.9,13.3,21.1,16.9c12.2,3.6,21.6-3.6,21.6-3.6s-9.4-10.9-20.9-14.6
					C86.6,421,76.2,426,76.2,426z"/>
				<path class="st2" d="M49.1,393.8c0,0,6.5,14.4,17.8,19.9c11.3,5.5,21.7-0.1,21.7-0.1s-7.3-12.2-17.9-17.6
					C60.1,390.6,49.1,393.8,49.1,393.8z"/>
				<path class="st2" d="M27.6,357.9c0,0,4.1,15.2,14.3,22.4c10.2,7.2,21.4,3.4,21.4,3.4s-5.2-13.1-14.8-20.2
					C39.1,356.4,27.6,357.9,27.6,357.9z"/>
				<path class="st2" d="M12.2,319c0,0,1.6,15.7,10.6,24.4c8.9,8.7,20.6,6.7,20.6,6.7s-3-13.7-11.3-22.2S12.2,319,12.2,319z"/>
				<path class="st2" d="M3.3,278c0,0-0.9,15.8,6.5,25.9c7.4,10.1,19.3,10,19.3,10s-0.8-14-7.6-23.8C14.6,280.3,3.3,278,3.3,278z"/>
				<path class="st2" d="M1.1,235.8c0,0-3.5,15.6,2.2,26.8c5.7,11.2,17.4,13.1,17.4,13.1s1.5-14-3.7-24.9
					C11.8,239.9,1.1,235.8,1.1,235.8z"/>
				<path class="st2" d="M6,193.1c0,0-6.1,15.1-2.4,27.3c3.8,12.2,15,15.9,15,15.9s3.8-13.8,0.5-25.5C15.9,199.1,6,193.1,6,193.1z"
					/>
				<path class="st2" d="M18.4,150.9c-5,8.1-8.2,17.8-7.2,27.2c1.3,12.6,12,18.5,12,18.5s6.1-13.2,5-25.6
					C27.1,158.6,18.4,150.9,18.4,150.9z"/>
				<path class="st2" d="M146.1,475.8c7.8,5.6,17.2,9.5,26.7,9.4c13.1-0.2,20.1-10.3,20.1-10.3s-13.4-7.3-26-7.2
					C154.3,467.8,146.1,475.8,146.1,475.8z"/>
				<path class="st2" d="M108.7,453.7c0,0,11.2,11.7,24,13.4c12.8,1.6,21.1-7,21.1-7s-11.4-9.3-23.5-11.1
					C118.1,447,108.7,453.7,108.7,453.7z"/>
				<path class="st2" d="M106.7,415c4.6,10.6,17.9,16.4,17.9,16.4s3.5-10.9-1-20.9c-4.6-10-15.5-16.2-15.5-16.2
					S102.2,404.4,106.7,415z"/>
				<path class="st2" d="M80.9,387.8c2.7,11.1,14.7,18.9,14.7,18.9s5.3-10.1,2.6-20.6c-2.8-10.5-12.5-18.4-12.5-18.4
					S78.2,376.7,80.9,387.8z"/>
				<path class="st2" d="M60,357c0.8,11.3,11.4,20.9,11.4,20.9s6.9-9.1,5.9-19.8C76.3,347.3,68,338,68,338S59.2,345.7,60,357z"/>
				<path class="st2" d="M44.3,323.3c-1,11.3,7.9,22.4,7.9,22.4s8.3-7.8,9-18.6c0.7-10.7-6-21.3-6-21.3S45.3,312,44.3,323.3z"/>
				<path class="st2" d="M34.3,287.6c-2.8,11,4.2,23.4,4.2,23.4s9.5-6.4,11.9-16.9s-2.5-22.1-2.5-22.1S37,276.5,34.3,287.6z"/>
				<path class="st2" d="M30.1,250.4c-4.5,10.5,0.3,24,0.3,24s10.4-4.8,14.5-14.8c4.1-10,1.1-22.4,1.1-22.4S34.6,239.9,30.1,250.4z"
					/>
				<path class="st2" d="M32.1,212.6c-6.3,9.8-3.7,24-3.7,24s11-3,16.7-12.4c5.7-9.4,4.9-22.2,4.9-22.2S38.4,202.8,32.1,212.6z"/>
				<path class="st2" d="M32.9,198.5c0,0,11.4-1.2,18.7-9.7c7.3-8.5,8.8-21.7,8.8-21.7s-11.8-1.1-19.7,7.8S32.9,198.5,32.9,198.5z"
					/>
				<path class="st2" d="M171.9,455.6c8.3,8.6,23.7,9.9,23.7,9.9s-0.6-11.5-8.8-19.5c-8.2-8-21.1-10.5-21.1-10.5
					S163.6,446.9,171.9,455.6z"/>
				<path class="st2" d="M137.2,437.8c6.4,9.8,20.9,13.4,20.9,13.4s1.5-11.4-4.8-20.5s-18.4-13.6-18.4-13.6S130.7,428.1,137.2,437.8
					z"/>
			</g>
		</g>
		<g>
			<g>
				<path class="st2" d="M447.7,149.9c-5.3-11.6-3.7-24.9-3.7-24.9s13,5.6,18.7,18.1c4.5,9.8,2.7,20,1.7,23.8
					c0.2-0.1,0.3-0.1,0.4-0.2c28.7,90.5,5.5,183-61.6,250c-9.8,9.2-20.4,17.6-31.6,25c-25.1,15.7-50.9,26.4-79.6,33.5
					c-0.2-1.1-0.4-1.7-0.6-2.8c28.4-7,53.8-17.6,78.6-33.1c11.1-7.3,21.5-15.6,31.2-24.7c66.3-66.2,89.2-157.5,60.9-246.9
					c0.2-0.1,0.3-0.1,0.4-0.2C459.5,165.1,451.9,159,447.7,149.9z"/>
				<path class="st2" d="M423.8,426c0,0-8.9,13.3-21.1,16.9c-12.2,3.6-21.6-3.6-21.6-3.6s9.4-10.9,20.9-14.6
					C413.4,421,423.8,426,423.8,426z"/>
				<path class="st2" d="M450.9,393.8c0,0-6.5,14.4-17.8,19.9c-11.3,5.5-21.7-0.1-21.7-0.1s7.3-12.2,17.9-17.6
					C439.9,390.6,450.9,393.8,450.9,393.8z"/>
				<path class="st2" d="M472.4,357.9c0,0-4.1,15.2-14.3,22.4c-10.2,7.2-21.4,3.4-21.4,3.4s5.2-13.1,14.8-20.2
					C460.9,356.4,472.4,357.9,472.4,357.9z"/>
				<path class="st2" d="M487.8,319c0,0-1.6,15.7-10.6,24.4c-8.9,8.7-20.6,6.7-20.6,6.7s3-13.7,11.3-22.2S487.8,319,487.8,319z"/>
				<path class="st2" d="M496.7,278c0,0,0.9,15.8-6.5,25.9c-7.4,10.1-19.3,10-19.3,10s0.8-14,7.6-23.8
					C485.4,280.3,496.7,278,496.7,278z"/>
				<path class="st2" d="M498.9,235.8c0,0,3.5,15.6-2.2,26.8c-5.7,11.2-17.4,13.1-17.4,13.1s-1.5-14,3.7-24.9
					C488.2,239.9,498.9,235.8,498.9,235.8z"/>
				<path class="st2" d="M494,193.1c0,0,6.1,15.1,2.4,27.3c-3.8,12.2-15,15.9-15,15.9s-3.8-13.8-0.5-25.5S494,193.1,494,193.1z"/>
				<path class="st2" d="M481.6,150.9c5,8.1,8.2,17.8,7.2,27.2c-1.3,12.6-12,18.5-12,18.5s-6.1-13.2-5-25.6
					C472.9,158.6,481.6,150.9,481.6,150.9z"/>
				<path class="st2" d="M353.9,475.8c-7.8,5.6-17.2,9.5-26.7,9.4c-13.1-0.2-20.1-10.3-20.1-10.3s13.4-7.3,26-7.2
					C345.7,467.8,353.9,475.8,353.9,475.8z"/>
				<path class="st2" d="M391.3,453.7c0,0-11.2,11.7-24,13.4c-12.8,1.6-21.1-7-21.1-7s11.4-9.3,23.5-11.1
					C381.9,447,391.3,453.7,391.3,453.7z"/>
				<path class="st2" d="M393.3,415c-4.6,10.6-17.9,16.4-17.9,16.4s-3.5-10.9,1-20.9c4.6-10,15.5-16.2,15.5-16.2
					S397.8,404.4,393.3,415z"/>
				<path class="st2" d="M419.1,387.8c-2.7,11.1-14.7,18.9-14.7,18.9s-5.3-10.1-2.6-20.6c2.8-10.5,12.5-18.4,12.5-18.4
					S421.8,376.7,419.1,387.8z"/>
				<path class="st2" d="M440,357c-0.8,11.3-11.4,20.9-11.4,20.9s-6.9-9.1-5.9-19.8c1-10.7,9.3-20.1,9.3-20.1S440.8,345.7,440,357z"
					/>
				<path class="st2" d="M455.7,323.3c1,11.3-7.9,22.4-7.9,22.4s-8.3-7.8-9-18.6c-0.7-10.7,6-21.3,6-21.3S454.7,312,455.7,323.3z"/>
				<path class="st2" d="M465.7,287.6c2.8,11-4.2,23.4-4.2,23.4s-9.5-6.4-11.9-16.9c-2.4-10.5,2.5-22.1,2.5-22.1
					S463,276.5,465.7,287.6z"/>
				<path class="st2" d="M469.9,250.4c4.5,10.5-0.3,24-0.3,24s-10.4-4.8-14.5-14.8c-4.1-10-1.1-22.4-1.1-22.4
					S465.4,239.9,469.9,250.4z"/>
				<path class="st2" d="M467.9,212.6c6.3,9.8,3.7,24,3.7,24s-11-3-16.7-12.4c-5.7-9.4-4.9-22.2-4.9-22.2S461.6,202.8,467.9,212.6z"
					/>
				<path class="st2" d="M467.1,198.5c0,0-11.4-1.2-18.7-9.7c-7.3-8.5-8.8-21.7-8.8-21.7s11.8-1.1,19.7,7.8S467.1,198.5,467.1,198.5
					z"/>
				<path class="st2" d="M328.1,455.6c-8.3,8.6-23.7,9.9-23.7,9.9s0.6-11.5,8.8-19.5c8.2-8,21.1-10.5,21.1-10.5
					S336.4,446.9,328.1,455.6z"/>
				<path class="st2" d="M362.8,437.8c-6.4,9.8-20.9,13.4-20.9,13.4s-1.5-11.4,4.8-20.5c6.4-9.1,18.4-13.6,18.4-13.6
					S369.3,428.1,362.8,437.8z"/>
			</g>
		</g>
	</g>
	<g>
		<polygon class="st0" points="250,457.5 255.6,468.8 268,470.6 259,479.3 261.1,491.8 250,485.9 238.9,491.8 241,479.3 232,470.6 
			244.4,468.8 		"/>
	</g>
</g>
</svg>
